<svg version = "1.1"
	baseProfile="full"
	width="100%" height="100%"
	xmlns="http://www.w3.org/2000/svg">
	<polygon points="483.5,0 0,837.447 967,837.447" style="fill:red" />

	<rect x="21.362" y="800.447" width="111" height="37" fill="green" />
	<rect x="132.362" y="800.447" width="111" height="37" fill="green" />
	<rect x="243.362" y="800.447" width="111" height="37" fill="green" />
	<rect x="354.362" y="800.447" width="111" height="37" fill="green" />
	<rect x="465.362" y="800.447" width="111" height="37" fill="green" />
	<rect x="576.362" y="800.447" width="111" height="37" fill="green" />
	<rect x="687.362" y="800.447" width="111" height="37" fill="green" />
	<rect x="798.362" y="800.447" width="111" height="37" fill="green" />
	<rect x="42.7239" y="763.447" width="111" height="37" fill="green" />
	<rect x="153.724" y="763.447" width="111" height="37" fill="green" />
	<rect x="264.724" y="763.447" width="111" height="37" fill="green" />
	<rect x="375.724" y="763.447" width="111" height="37" fill="green" />
	<rect x="486.724" y="763.447" width="111" height="37" fill="green" />
	<rect x="597.724" y="763.447" width="111" height="37" fill="green" />
	<rect x="708.724" y="763.447" width="111" height="37" fill="green" />
	<rect x="64.0859" y="726.447" width="111" height="37" fill="green" />
	<rect x="175.086" y="726.447" width="111" height="37" fill="green" />
	<rect x="286.086" y="726.447" width="111" height="37" fill="green" />
	<rect x="397.086" y="726.447" width="111" height="37" fill="green" />
	<rect x="508.086" y="726.447" width="111" height="37" fill="green" />
	<rect x="619.086" y="726.447" width="111" height="37" fill="green" />
	<rect x="730.086" y="726.447" width="111" height="37" fill="green" />
	<rect x="85.4478" y="689.447" width="111" height="37" fill="green" />
	<rect x="196.448" y="689.447" width="111" height="37" fill="green" />
	<rect x="307.448" y="689.447" width="111" height="37" fill="green" />
	<rect x="418.448" y="689.447" width="111" height="37" fill="green" />
	<rect x="529.448" y="689.447" width="111" height="37" fill="green" />
	<rect x="640.448" y="689.447" width="111" height="37" fill="green" />
	<rect x="751.448" y="689.447" width="111" height="37" fill="green" />
	<rect x="106.81" y="652.447" width="111" height="37" fill="green" />
	<rect x="217.81" y="652.447" width="111" height="37" fill="green" />
	<rect x="328.81" y="652.447" width="111" height="37" fill="green" />
	<rect x="439.81" y="652.447" width="111" height="37" fill="green" />
	<rect x="550.81" y="652.447" width="111" height="37" fill="green" />
	<rect x="661.81" y="652.447" width="111" height="37" fill="green" />
	<rect x="128.172" y="615.447" width="111" height="37" fill="green" />
	<rect x="239.172" y="615.447" width="111" height="37" fill="green" />
	<rect x="350.172" y="615.447" width="111" height="37" fill="green" />
	<rect x="461.172" y="615.447" width="111" height="37" fill="green" />
	<rect x="572.172" y="615.447" width="111" height="37" fill="green" />
	<rect x="683.172" y="615.447" width="111" height="37" fill="green" />
	<rect x="149.534" y="578.447" width="111" height="37" fill="green" />
	<rect x="260.534" y="578.447" width="111" height="37" fill="green" />
	<rect x="371.534" y="578.447" width="111" height="37" fill="green" />
	<rect x="482.534" y="578.447" width="111" height="37" fill="green" />
	<rect x="593.534" y="578.447" width="111" height="37" fill="green" />
	<rect x="704.534" y="578.447" width="111" height="37" fill="green" />
	<rect x="170.896" y="541.447" width="111" height="37" fill="green" />
	<rect x="281.896" y="541.447" width="111" height="37" fill="green" />
	<rect x="392.896" y="541.447" width="111" height="37" fill="green" />
	<rect x="503.896" y="541.447" width="111" height="37" fill="green" />
	<rect x="614.896" y="541.447" width="111" height="37" fill="green" />
	<rect x="192.258" y="504.447" width="111" height="37" fill="green" />
	<rect x="303.258" y="504.447" width="111" height="37" fill="green" />
	<rect x="414.258" y="504.447" width="111" height="37" fill="green" />
	<rect x="525.258" y="504.447" width="111" height="37" fill="green" />
	<rect x="636.258" y="504.447" width="111" height="37" fill="green" />
	<rect x="213.62" y="467.447" width="111" height="37" fill="green" />
	<rect x="324.62" y="467.447" width="111" height="37" fill="green" />
	<rect x="435.62" y="467.447" width="111" height="37" fill="green" />
	<rect x="546.62" y="467.447" width="111" height="37" fill="green" />
	<rect x="234.982" y="430.447" width="111" height="37" fill="green" />
	<rect x="345.982" y="430.447" width="111" height="37" fill="green" />
	<rect x="456.982" y="430.447" width="111" height="37" fill="green" />
	<rect x="567.982" y="430.447" width="111" height="37" fill="green" />
	<rect x="256.344" y="393.447" width="111" height="37" fill="green" />
	<rect x="367.344" y="393.447" width="111" height="37" fill="green" />
	<rect x="478.344" y="393.447" width="111" height="37" fill="green" />
	<rect x="589.344" y="393.447" width="111" height="37" fill="green" />
	<rect x="277.705" y="356.447" width="111" height="37" fill="green" />
	<rect x="388.705" y="356.447" width="111" height="37" fill="green" />
	<rect x="499.705" y="356.447" width="111" height="37" fill="green" />
	<rect x="299.067" y="319.447" width="111" height="37" fill="green" />
	<rect x="410.067" y="319.447" width="111" height="37" fill="green" />
	<rect x="521.067" y="319.447" width="111" height="37" fill="green" />
	<rect x="320.429" y="282.447" width="111" height="37" fill="green" />
	<rect x="431.429" y="282.447" width="111" height="37" fill="green" />
	<rect x="341.791" y="245.447" width="111" height="37" fill="green" />
	<rect x="452.791" y="245.447" width="111" height="37" fill="green" />
	<rect x="363.153" y="208.447" width="111" height="37" fill="green" />
	<rect x="474.153" y="208.447" width="111" height="37" fill="green" />
	<rect x="384.515" y="171.447" width="111" height="37" fill="green" />
	<rect x="405.877" y="134.447" width="111" height="37" fill="green" />
	<rect x="427.239" y="97.4466" width="111" height="37" fill="green" /></svg>