<svg version = "1.1"
	baseProfile="full"
	width="100%" height="100%"
	xmlns="http://www.w3.org/2000/svg">

	<rect width="657" height="325" fill="red" />

	<rect x="0" y="0" width="111" height="47" style="fill:green;;stroke-width:1" />

	<rect x="111" y="0" width="111" height="47" style="fill:green;;stroke-width:1" />

	<rect x="222" y="0" width="111" height="47" style="fill:green;;stroke-width:1" />

	<rect x="333" y="0" width="111" height="47" style="fill:green;;stroke-width:1" />

	<rect x="444" y="0" width="111" height="47" style="fill:green;;stroke-width:1" />

	<rect x="0" y="47" width="111" height="47" style="fill:green;;stroke-width:1" />

	<rect x="111" y="47" width="111" height="47" style="fill:green;;stroke-width:1" />

	<rect x="222" y="47" width="111" height="47" style="fill:green;;stroke-width:1" />

	<rect x="333" y="47" width="111" height="47" style="fill:green;;stroke-width:1" />

	<rect x="444" y="47" width="111" height="47" style="fill:green;;stroke-width:1" />

	<rect x="0" y="94" width="111" height="47" style="fill:green;;stroke-width:1" />

	<rect x="111" y="94" width="111" height="47" style="fill:green;;stroke-width:1" />

	<rect x="222" y="94" width="111" height="47" style="fill:green;;stroke-width:1" />

	<rect x="333" y="94" width="111" height="47" style="fill:green;;stroke-width:1" />

	<rect x="444" y="94" width="111" height="47" style="fill:green;;stroke-width:1" />

	<rect x="0" y="141" width="111" height="47" style="fill:green;;stroke-width:1" />

	<rect x="111" y="141" width="111" height="47" style="fill:green;;stroke-width:1" />

	<rect x="222" y="141" width="111" height="47" style="fill:green;;stroke-width:1" />

	<rect x="333" y="141" width="111" height="47" style="fill:green;;stroke-width:1" />

	<rect x="444" y="141" width="111" height="47" style="fill:green;;stroke-width:1" />

	<rect x="0" y="188" width="111" height="47" style="fill:green;;stroke-width:1" />

	<rect x="111" y="188" width="111" height="47" style="fill:green;;stroke-width:1" />

	<rect x="222" y="188" width="111" height="47" style="fill:green;;stroke-width:1" />

	<rect x="333" y="188" width="111" height="47" style="fill:green;;stroke-width:1" />

	<rect x="444" y="188" width="111" height="47" style="fill:green;;stroke-width:1" />

	<rect x="0" y="235" width="111" height="47" style="fill:green;;stroke-width:1" />

	<rect x="111" y="235" width="111" height="47" style="fill:green;;stroke-width:1" />

	<rect x="222" y="235" width="111" height="47" style="fill:green;;stroke-width:1" />

	<rect x="333" y="235" width="111" height="47" style="fill:green;;stroke-width:1" />

	<rect x="444" y="235" width="111" height="47" style="fill:green;;stroke-width:1" />

	<rect x="555" y="0" width="47" height="111" style="fill:green;stroke-width:1" />

	<rect x="602" y="0" width="47" height="111" style="fill:green;stroke-width:1" />

	<rect x="555" y="111" width="47" height="111" style="fill:green;stroke-width:1" />

	<rect x="602" y="111" width="47" height="111" style="fill:green;stroke-width:1" />
</svg>