<svg version = "1.1"
	baseProfile="full"
	width="100%" height="100%"
	xmlns="http://www.w3.org/2000/svg">
	<polygon points="500,0 0,866.025 1000,866.025" style="fill:red" />
	
<circle cx="62.3538" cy="830.025" r="36" fill="green" />	
<circle cx="134.354" cy="830.025" r="36" fill="green" />	
<circle cx="206.354" cy="830.025" r="36" fill="green" />	
<circle cx="278.354" cy="830.025" r="36" fill="green" />	
<circle cx="350.354" cy="830.025" r="36" fill="green" />	
<circle cx="422.354" cy="830.025" r="36" fill="green" />	
<circle cx="494.354" cy="830.025" r="36" fill="green" />	
<circle cx="566.354" cy="830.025" r="36" fill="green" />	
<circle cx="638.354" cy="830.025" r="36" fill="green" />	
<circle cx="710.354" cy="830.025" r="36" fill="green" />	
<circle cx="782.354" cy="830.025" r="36" fill="green" />	
<circle cx="854.354" cy="830.025" r="36" fill="green" />	
<circle cx="926.354" cy="830.025" r="36" fill="green" />	
<circle cx="98.3538" cy="767.672" r="36" fill="green" />	
<circle cx="170.354" cy="767.672" r="36" fill="green" />	
<circle cx="242.354" cy="767.672" r="36" fill="green" />	
<circle cx="314.354" cy="767.672" r="36" fill="green" />	
<circle cx="386.354" cy="767.672" r="36" fill="green" />	
<circle cx="458.354" cy="767.672" r="36" fill="green" />	
<circle cx="530.354" cy="767.672" r="36" fill="green" />	
<circle cx="602.354" cy="767.672" r="36" fill="green" />	
<circle cx="674.354" cy="767.672" r="36" fill="green" />	
<circle cx="746.354" cy="767.672" r="36" fill="green" />	
<circle cx="818.354" cy="767.672" r="36" fill="green" />	
<circle cx="890.354" cy="767.672" r="36" fill="green" />	
<circle cx="134.354" cy="705.318" r="36" fill="green" />	
<circle cx="206.354" cy="705.318" r="36" fill="green" />	
<circle cx="278.354" cy="705.318" r="36" fill="green" />	
<circle cx="350.354" cy="705.318" r="36" fill="green" />	
<circle cx="422.354" cy="705.318" r="36" fill="green" />	
<circle cx="494.354" cy="705.318" r="36" fill="green" />	
<circle cx="566.354" cy="705.318" r="36" fill="green" />	
<circle cx="638.354" cy="705.318" r="36" fill="green" />	
<circle cx="710.354" cy="705.318" r="36" fill="green" />	
<circle cx="782.354" cy="705.318" r="36" fill="green" />	
<circle cx="854.354" cy="705.318" r="36" fill="green" />	
<circle cx="170.354" cy="642.964" r="36" fill="green" />	
<circle cx="242.354" cy="642.964" r="36" fill="green" />	
<circle cx="314.354" cy="642.964" r="36" fill="green" />	
<circle cx="386.354" cy="642.964" r="36" fill="green" />	
<circle cx="458.354" cy="642.964" r="36" fill="green" />	
<circle cx="530.354" cy="642.964" r="36" fill="green" />	
<circle cx="602.354" cy="642.964" r="36" fill="green" />	
<circle cx="674.354" cy="642.964" r="36" fill="green" />	
<circle cx="746.354" cy="642.964" r="36" fill="green" />	
<circle cx="818.354" cy="642.964" r="36" fill="green" />	
<circle cx="206.354" cy="580.61" r="36" fill="green" />	
<circle cx="278.354" cy="580.61" r="36" fill="green" />	
<circle cx="350.354" cy="580.61" r="36" fill="green" />	
<circle cx="422.354" cy="580.61" r="36" fill="green" />	
<circle cx="494.354" cy="580.61" r="36" fill="green" />	
<circle cx="566.354" cy="580.61" r="36" fill="green" />	
<circle cx="638.354" cy="580.61" r="36" fill="green" />	
<circle cx="710.354" cy="580.61" r="36" fill="green" />	
<circle cx="782.354" cy="580.61" r="36" fill="green" />	
<circle cx="242.354" cy="518.256" r="36" fill="green" />	
<circle cx="314.354" cy="518.256" r="36" fill="green" />	
<circle cx="386.354" cy="518.256" r="36" fill="green" />	
<circle cx="458.354" cy="518.256" r="36" fill="green" />	
<circle cx="530.354" cy="518.256" r="36" fill="green" />	
<circle cx="602.354" cy="518.256" r="36" fill="green" />	
<circle cx="674.354" cy="518.256" r="36" fill="green" />	
<circle cx="746.354" cy="518.256" r="36" fill="green" />	
<circle cx="278.354" cy="455.902" r="36" fill="green" />	
<circle cx="350.354" cy="455.902" r="36" fill="green" />	
<circle cx="422.354" cy="455.902" r="36" fill="green" />	
<circle cx="494.354" cy="455.902" r="36" fill="green" />	
<circle cx="566.354" cy="455.902" r="36" fill="green" />	
<circle cx="638.354" cy="455.902" r="36" fill="green" />	
<circle cx="710.354" cy="455.902" r="36" fill="green" />	
<circle cx="314.354" cy="393.549" r="36" fill="green" />	
<circle cx="386.354" cy="393.549" r="36" fill="green" />	
<circle cx="458.354" cy="393.549" r="36" fill="green" />	
<circle cx="530.354" cy="393.549" r="36" fill="green" />	
<circle cx="602.354" cy="393.549" r="36" fill="green" />	
<circle cx="674.354" cy="393.549" r="36" fill="green" />	
<circle cx="350.354" cy="331.195" r="36" fill="green" />	
<circle cx="422.354" cy="331.195" r="36" fill="green" />	
<circle cx="494.354" cy="331.195" r="36" fill="green" />	
<circle cx="566.354" cy="331.195" r="36" fill="green" />	
<circle cx="638.354" cy="331.195" r="36" fill="green" />	
<circle cx="386.354" cy="268.841" r="36" fill="green" />	
<circle cx="458.354" cy="268.841" r="36" fill="green" />	
<circle cx="530.354" cy="268.841" r="36" fill="green" />	
<circle cx="602.354" cy="268.841" r="36" fill="green" />	
<circle cx="422.354" cy="206.487" r="36" fill="green" />	
<circle cx="494.354" cy="206.487" r="36" fill="green" />	
<circle cx="566.354" cy="206.487" r="36" fill="green" />	
<circle cx="458.354" cy="144.133" r="36" fill="green" />	
<circle cx="530.354" cy="144.133" r="36" fill="green" />	
<circle cx="494.354" cy="81.7795" r="36" fill="green" /></svg>