<svg version = "1.1"
	baseProfile="full"
	width="100%" height="100%"
	xmlns="http://www.w3.org/2000/svg">

	<rect width="651" height="325" fill="red" />
	<polygon points="23.5,0 0,40.7032 47,40.7032" style="fill:green;stroke::0.1" />
	<polygon points="70.5,0 47,40.7032 94,40.7032" style="fill:green;stroke::0.1" />
	<polygon points="117.5,0 94,40.7032 141,40.7032" style="fill:green;stroke::0.1" />
	<polygon points="164.5,0 141,40.7032 188,40.7032" style="fill:green;stroke::0.1" />
	<polygon points="211.5,0 188,40.7032 235,40.7032" style="fill:green;stroke::0.1" />
	<polygon points="258.5,0 235,40.7032 282,40.7032" style="fill:green;stroke::0.1" />
	<polygon points="305.5,0 282,40.7032 329,40.7032" style="fill:green;stroke::0.1" />
	<polygon points="352.5,0 329,40.7032 376,40.7032" style="fill:green;stroke::0.1" />
	<polygon points="399.5,0 376,40.7032 423,40.7032" style="fill:green;stroke::0.1" />
	<polygon points="446.5,0 423,40.7032 470,40.7032" style="fill:green;stroke::0.1" />
	<polygon points="493.5,0 470,40.7032 517,40.7032" style="fill:green;stroke::0.1" />
	<polygon points="540.5,0 517,40.7032 564,40.7032" style="fill:green;stroke::0.1" />
	<polygon points="587.5,0 564,40.7032 611,40.7032" style="fill:green;stroke::0.1" />
	<polygon points="23.5,40.7032 0,81.4064 47,81.4064" style="fill:green;stroke::0.1" />
	<polygon points="70.5,40.7032 47,81.4064 94,81.4064" style="fill:green;stroke::0.1" />
	<polygon points="117.5,40.7032 94,81.4064 141,81.4064" style="fill:green;stroke::0.1" />
	<polygon points="164.5,40.7032 141,81.4064 188,81.4064" style="fill:green;stroke::0.1" />
	<polygon points="211.5,40.7032 188,81.4064 235,81.4064" style="fill:green;stroke::0.1" />
	<polygon points="258.5,40.7032 235,81.4064 282,81.4064" style="fill:green;stroke::0.1" />
	<polygon points="305.5,40.7032 282,81.4064 329,81.4064" style="fill:green;stroke::0.1" />
	<polygon points="352.5,40.7032 329,81.4064 376,81.4064" style="fill:green;stroke::0.1" />
	<polygon points="399.5,40.7032 376,81.4064 423,81.4064" style="fill:green;stroke::0.1" />
	<polygon points="446.5,40.7032 423,81.4064 470,81.4064" style="fill:green;stroke::0.1" />
	<polygon points="493.5,40.7032 470,81.4064 517,81.4064" style="fill:green;stroke::0.1" />
	<polygon points="540.5,40.7032 517,81.4064 564,81.4064" style="fill:green;stroke::0.1" />
	<polygon points="587.5,40.7032 564,81.4064 611,81.4064" style="fill:green;stroke::0.1" />
	<polygon points="23.5,81.4064 0,122.11 47,122.11" style="fill:green;stroke::0.1" />
	<polygon points="70.5,81.4064 47,122.11 94,122.11" style="fill:green;stroke::0.1" />
	<polygon points="117.5,81.4064 94,122.11 141,122.11" style="fill:green;stroke::0.1" />
	<polygon points="164.5,81.4064 141,122.11 188,122.11" style="fill:green;stroke::0.1" />
	<polygon points="211.5,81.4064 188,122.11 235,122.11" style="fill:green;stroke::0.1" />
	<polygon points="258.5,81.4064 235,122.11 282,122.11" style="fill:green;stroke::0.1" />
	<polygon points="305.5,81.4064 282,122.11 329,122.11" style="fill:green;stroke::0.1" />
	<polygon points="352.5,81.4064 329,122.11 376,122.11" style="fill:green;stroke::0.1" />
	<polygon points="399.5,81.4064 376,122.11 423,122.11" style="fill:green;stroke::0.1" />
	<polygon points="446.5,81.4064 423,122.11 470,122.11" style="fill:green;stroke::0.1" />
	<polygon points="493.5,81.4064 470,122.11 517,122.11" style="fill:green;stroke::0.1" />
	<polygon points="540.5,81.4064 517,122.11 564,122.11" style="fill:green;stroke::0.1" />
	<polygon points="587.5,81.4064 564,122.11 611,122.11" style="fill:green;stroke::0.1" />
	<polygon points="23.5,122.11 0,162.813 47,162.813" style="fill:green;stroke::0.1" />
	<polygon points="70.5,122.11 47,162.813 94,162.813" style="fill:green;stroke::0.1" />
	<polygon points="117.5,122.11 94,162.813 141,162.813" style="fill:green;stroke::0.1" />
	<polygon points="164.5,122.11 141,162.813 188,162.813" style="fill:green;stroke::0.1" />
	<polygon points="211.5,122.11 188,162.813 235,162.813" style="fill:green;stroke::0.1" />
	<polygon points="258.5,122.11 235,162.813 282,162.813" style="fill:green;stroke::0.1" />
	<polygon points="305.5,122.11 282,162.813 329,162.813" style="fill:green;stroke::0.1" />
	<polygon points="352.5,122.11 329,162.813 376,162.813" style="fill:green;stroke::0.1" />
	<polygon points="399.5,122.11 376,162.813 423,162.813" style="fill:green;stroke::0.1" />
	<polygon points="446.5,122.11 423,162.813 470,162.813" style="fill:green;stroke::0.1" />
	<polygon points="493.5,122.11 470,162.813 517,162.813" style="fill:green;stroke::0.1" />
	<polygon points="540.5,122.11 517,162.813 564,162.813" style="fill:green;stroke::0.1" />
	<polygon points="587.5,122.11 564,162.813 611,162.813" style="fill:green;stroke::0.1" />
	<polygon points="23.5,162.813 0,203.516 47,203.516" style="fill:green;stroke::0.1" />
	<polygon points="70.5,162.813 47,203.516 94,203.516" style="fill:green;stroke::0.1" />
	<polygon points="117.5,162.813 94,203.516 141,203.516" style="fill:green;stroke::0.1" />
	<polygon points="164.5,162.813 141,203.516 188,203.516" style="fill:green;stroke::0.1" />
	<polygon points="211.5,162.813 188,203.516 235,203.516" style="fill:green;stroke::0.1" />
	<polygon points="258.5,162.813 235,203.516 282,203.516" style="fill:green;stroke::0.1" />
	<polygon points="305.5,162.813 282,203.516 329,203.516" style="fill:green;stroke::0.1" />
	<polygon points="352.5,162.813 329,203.516 376,203.516" style="fill:green;stroke::0.1" />
	<polygon points="399.5,162.813 376,203.516 423,203.516" style="fill:green;stroke::0.1" />
	<polygon points="446.5,162.813 423,203.516 470,203.516" style="fill:green;stroke::0.1" />
	<polygon points="493.5,162.813 470,203.516 517,203.516" style="fill:green;stroke::0.1" />
	<polygon points="540.5,162.813 517,203.516 564,203.516" style="fill:green;stroke::0.1" />
	<polygon points="587.5,162.813 564,203.516 611,203.516" style="fill:green;stroke::0.1" />
	<polygon points="23.5,203.516 0,244.219 47,244.219" style="fill:green;stroke::0.1" />
	<polygon points="70.5,203.516 47,244.219 94,244.219" style="fill:green;stroke::0.1" />
	<polygon points="117.5,203.516 94,244.219 141,244.219" style="fill:green;stroke::0.1" />
	<polygon points="164.5,203.516 141,244.219 188,244.219" style="fill:green;stroke::0.1" />
	<polygon points="211.5,203.516 188,244.219 235,244.219" style="fill:green;stroke::0.1" />
	<polygon points="258.5,203.516 235,244.219 282,244.219" style="fill:green;stroke::0.1" />
	<polygon points="305.5,203.516 282,244.219 329,244.219" style="fill:green;stroke::0.1" />
	<polygon points="352.5,203.516 329,244.219 376,244.219" style="fill:green;stroke::0.1" />
	<polygon points="399.5,203.516 376,244.219 423,244.219" style="fill:green;stroke::0.1" />
	<polygon points="446.5,203.516 423,244.219 470,244.219" style="fill:green;stroke::0.1" />
	<polygon points="493.5,203.516 470,244.219 517,244.219" style="fill:green;stroke::0.1" />
	<polygon points="540.5,203.516 517,244.219 564,244.219" style="fill:green;stroke::0.1" />
	<polygon points="587.5,203.516 564,244.219 611,244.219" style="fill:green;stroke::0.1" />
	<polygon points="23.5,244.219 0,284.922 47,284.922" style="fill:green;stroke::0.1" />
	<polygon points="70.5,244.219 47,284.922 94,284.922" style="fill:green;stroke::0.1" />
	<polygon points="117.5,244.219 94,284.922 141,284.922" style="fill:green;stroke::0.1" />
	<polygon points="164.5,244.219 141,284.922 188,284.922" style="fill:green;stroke::0.1" />
	<polygon points="211.5,244.219 188,284.922 235,284.922" style="fill:green;stroke::0.1" />
	<polygon points="258.5,244.219 235,284.922 282,284.922" style="fill:green;stroke::0.1" />
	<polygon points="305.5,244.219 282,284.922 329,284.922" style="fill:green;stroke::0.1" />
	<polygon points="352.5,244.219 329,284.922 376,284.922" style="fill:green;stroke::0.1" />
	<polygon points="399.5,244.219 376,284.922 423,284.922" style="fill:green;stroke::0.1" />
	<polygon points="446.5,244.219 423,284.922 470,284.922" style="fill:green;stroke::0.1" />
	<polygon points="493.5,244.219 470,284.922 517,284.922" style="fill:green;stroke::0.1" />
	<polygon points="540.5,244.219 517,284.922 564,284.922" style="fill:green;stroke::0.1" />
	<polygon points="587.5,244.219 564,284.922 611,284.922" style="fill:green;stroke::0.1" />
	<polygon points="23.5,0 70.5,0 47,40.7032" style="fill:green;stroke-width::0.1" />
	<polygon points="70.5,0 117.5,0 94,40.7032" style="fill:green;stroke-width::0.1" />
	<polygon points="117.5,0 164.5,0 141,40.7032" style="fill:green;stroke-width::0.1" />
	<polygon points="164.5,0 211.5,0 188,40.7032" style="fill:green;stroke-width::0.1" />
	<polygon points="211.5,0 258.5,0 235,40.7032" style="fill:green;stroke-width::0.1" />
	<polygon points="258.5,0 305.5,0 282,40.7032" style="fill:green;stroke-width::0.1" />
	<polygon points="305.5,0 352.5,0 329,40.7032" style="fill:green;stroke-width::0.1" />
	<polygon points="352.5,0 399.5,0 376,40.7032" style="fill:green;stroke-width::0.1" />
	<polygon points="399.5,0 446.5,0 423,40.7032" style="fill:green;stroke-width::0.1" />
	<polygon points="446.5,0 493.5,0 470,40.7032" style="fill:green;stroke-width::0.1" />
	<polygon points="493.5,0 540.5,0 517,40.7032" style="fill:green;stroke-width::0.1" />
	<polygon points="540.5,0 587.5,0 564,40.7032" style="fill:green;stroke-width::0.1" />
	<polygon points="587.5,0 634.5,0 611,40.7032" style="fill:green;stroke-width::0.1" />
	<polygon points="23.5,40.7032 70.5,40.7032 47,81.4064" style="fill:green;stroke-width::0.1" />
	<polygon points="70.5,40.7032 117.5,40.7032 94,81.4064" style="fill:green;stroke-width::0.1" />
	<polygon points="117.5,40.7032 164.5,40.7032 141,81.4064" style="fill:green;stroke-width::0.1" />
	<polygon points="164.5,40.7032 211.5,40.7032 188,81.4064" style="fill:green;stroke-width::0.1" />
	<polygon points="211.5,40.7032 258.5,40.7032 235,81.4064" style="fill:green;stroke-width::0.1" />
	<polygon points="258.5,40.7032 305.5,40.7032 282,81.4064" style="fill:green;stroke-width::0.1" />
	<polygon points="305.5,40.7032 352.5,40.7032 329,81.4064" style="fill:green;stroke-width::0.1" />
	<polygon points="352.5,40.7032 399.5,40.7032 376,81.4064" style="fill:green;stroke-width::0.1" />
	<polygon points="399.5,40.7032 446.5,40.7032 423,81.4064" style="fill:green;stroke-width::0.1" />
	<polygon points="446.5,40.7032 493.5,40.7032 470,81.4064" style="fill:green;stroke-width::0.1" />
	<polygon points="493.5,40.7032 540.5,40.7032 517,81.4064" style="fill:green;stroke-width::0.1" />
	<polygon points="540.5,40.7032 587.5,40.7032 564,81.4064" style="fill:green;stroke-width::0.1" />
	<polygon points="587.5,40.7032 634.5,40.7032 611,81.4064" style="fill:green;stroke-width::0.1" />
	<polygon points="23.5,81.4064 70.5,81.4064 47,122.11" style="fill:green;stroke-width::0.1" />
	<polygon points="70.5,81.4064 117.5,81.4064 94,122.11" style="fill:green;stroke-width::0.1" />
	<polygon points="117.5,81.4064 164.5,81.4064 141,122.11" style="fill:green;stroke-width::0.1" />
	<polygon points="164.5,81.4064 211.5,81.4064 188,122.11" style="fill:green;stroke-width::0.1" />
	<polygon points="211.5,81.4064 258.5,81.4064 235,122.11" style="fill:green;stroke-width::0.1" />
	<polygon points="258.5,81.4064 305.5,81.4064 282,122.11" style="fill:green;stroke-width::0.1" />
	<polygon points="305.5,81.4064 352.5,81.4064 329,122.11" style="fill:green;stroke-width::0.1" />
	<polygon points="352.5,81.4064 399.5,81.4064 376,122.11" style="fill:green;stroke-width::0.1" />
	<polygon points="399.5,81.4064 446.5,81.4064 423,122.11" style="fill:green;stroke-width::0.1" />
	<polygon points="446.5,81.4064 493.5,81.4064 470,122.11" style="fill:green;stroke-width::0.1" />
	<polygon points="493.5,81.4064 540.5,81.4064 517,122.11" style="fill:green;stroke-width::0.1" />
	<polygon points="540.5,81.4064 587.5,81.4064 564,122.11" style="fill:green;stroke-width::0.1" />
	<polygon points="587.5,81.4064 634.5,81.4064 611,122.11" style="fill:green;stroke-width::0.1" />
	<polygon points="23.5,122.11 70.5,122.11 47,162.813" style="fill:green;stroke-width::0.1" />
	<polygon points="70.5,122.11 117.5,122.11 94,162.813" style="fill:green;stroke-width::0.1" />
	<polygon points="117.5,122.11 164.5,122.11 141,162.813" style="fill:green;stroke-width::0.1" />
	<polygon points="164.5,122.11 211.5,122.11 188,162.813" style="fill:green;stroke-width::0.1" />
	<polygon points="211.5,122.11 258.5,122.11 235,162.813" style="fill:green;stroke-width::0.1" />
	<polygon points="258.5,122.11 305.5,122.11 282,162.813" style="fill:green;stroke-width::0.1" />
	<polygon points="305.5,122.11 352.5,122.11 329,162.813" style="fill:green;stroke-width::0.1" />
	<polygon points="352.5,122.11 399.5,122.11 376,162.813" style="fill:green;stroke-width::0.1" />
	<polygon points="399.5,122.11 446.5,122.11 423,162.813" style="fill:green;stroke-width::0.1" />
	<polygon points="446.5,122.11 493.5,122.11 470,162.813" style="fill:green;stroke-width::0.1" />
	<polygon points="493.5,122.11 540.5,122.11 517,162.813" style="fill:green;stroke-width::0.1" />
	<polygon points="540.5,122.11 587.5,122.11 564,162.813" style="fill:green;stroke-width::0.1" />
	<polygon points="587.5,122.11 634.5,122.11 611,162.813" style="fill:green;stroke-width::0.1" />
	<polygon points="23.5,162.813 70.5,162.813 47,203.516" style="fill:green;stroke-width::0.1" />
	<polygon points="70.5,162.813 117.5,162.813 94,203.516" style="fill:green;stroke-width::0.1" />
	<polygon points="117.5,162.813 164.5,162.813 141,203.516" style="fill:green;stroke-width::0.1" />
	<polygon points="164.5,162.813 211.5,162.813 188,203.516" style="fill:green;stroke-width::0.1" />
	<polygon points="211.5,162.813 258.5,162.813 235,203.516" style="fill:green;stroke-width::0.1" />
	<polygon points="258.5,162.813 305.5,162.813 282,203.516" style="fill:green;stroke-width::0.1" />
	<polygon points="305.5,162.813 352.5,162.813 329,203.516" style="fill:green;stroke-width::0.1" />
	<polygon points="352.5,162.813 399.5,162.813 376,203.516" style="fill:green;stroke-width::0.1" />
	<polygon points="399.5,162.813 446.5,162.813 423,203.516" style="fill:green;stroke-width::0.1" />
	<polygon points="446.5,162.813 493.5,162.813 470,203.516" style="fill:green;stroke-width::0.1" />
	<polygon points="493.5,162.813 540.5,162.813 517,203.516" style="fill:green;stroke-width::0.1" />
	<polygon points="540.5,162.813 587.5,162.813 564,203.516" style="fill:green;stroke-width::0.1" />
	<polygon points="587.5,162.813 634.5,162.813 611,203.516" style="fill:green;stroke-width::0.1" />
	<polygon points="23.5,203.516 70.5,203.516 47,244.219" style="fill:green;stroke-width::0.1" />
	<polygon points="70.5,203.516 117.5,203.516 94,244.219" style="fill:green;stroke-width::0.1" />
	<polygon points="117.5,203.516 164.5,203.516 141,244.219" style="fill:green;stroke-width::0.1" />
	<polygon points="164.5,203.516 211.5,203.516 188,244.219" style="fill:green;stroke-width::0.1" />
	<polygon points="211.5,203.516 258.5,203.516 235,244.219" style="fill:green;stroke-width::0.1" />
	<polygon points="258.5,203.516 305.5,203.516 282,244.219" style="fill:green;stroke-width::0.1" />
	<polygon points="305.5,203.516 352.5,203.516 329,244.219" style="fill:green;stroke-width::0.1" />
	<polygon points="352.5,203.516 399.5,203.516 376,244.219" style="fill:green;stroke-width::0.1" />
	<polygon points="399.5,203.516 446.5,203.516 423,244.219" style="fill:green;stroke-width::0.1" />
	<polygon points="446.5,203.516 493.5,203.516 470,244.219" style="fill:green;stroke-width::0.1" />
	<polygon points="493.5,203.516 540.5,203.516 517,244.219" style="fill:green;stroke-width::0.1" />
	<polygon points="540.5,203.516 587.5,203.516 564,244.219" style="fill:green;stroke-width::0.1" />
	<polygon points="587.5,203.516 634.5,203.516 611,244.219" style="fill:green;stroke-width::0.1" />
	<polygon points="23.5,244.219 70.5,244.219 47,284.922" style="fill:green;stroke-width::0.1" />
	<polygon points="70.5,244.219 117.5,244.219 94,284.922" style="fill:green;stroke-width::0.1" />
	<polygon points="117.5,244.219 164.5,244.219 141,284.922" style="fill:green;stroke-width::0.1" />
	<polygon points="164.5,244.219 211.5,244.219 188,284.922" style="fill:green;stroke-width::0.1" />
	<polygon points="211.5,244.219 258.5,244.219 235,284.922" style="fill:green;stroke-width::0.1" />
	<polygon points="258.5,244.219 305.5,244.219 282,284.922" style="fill:green;stroke-width::0.1" />
	<polygon points="305.5,244.219 352.5,244.219 329,284.922" style="fill:green;stroke-width::0.1" />
	<polygon points="352.5,244.219 399.5,244.219 376,284.922" style="fill:green;stroke-width::0.1" />
	<polygon points="399.5,244.219 446.5,244.219 423,284.922" style="fill:green;stroke-width::0.1" />
	<polygon points="446.5,244.219 493.5,244.219 470,284.922" style="fill:green;stroke-width::0.1" />
	<polygon points="493.5,244.219 540.5,244.219 517,284.922" style="fill:green;stroke-width::0.1" />
	<polygon points="540.5,244.219 587.5,244.219 564,284.922" style="fill:green;stroke-width::0.1" />
	<polygon points="587.5,244.219 634.5,244.219 611,284.922" style="fill:green;stroke-width::0.1" />
</svg>