<svg version = "1.1"
	baseProfile="full"
	width="100%" height="100%"
	xmlns="http://www.w3.org/2000/svg">

	<rect width="964" height="741" fill="red" />
	<circle cx="39" cy="39" r="39" fill="green" />
	<circle cx="117" cy="39" r="39" fill="green" />
	<circle cx="195" cy="39" r="39" fill="green" />
	<circle cx="273" cy="39" r="39" fill="green" />
	<circle cx="351" cy="39" r="39" fill="green" />
	<circle cx="429" cy="39" r="39" fill="green" />
	<circle cx="507" cy="39" r="39" fill="green" />
	<circle cx="585" cy="39" r="39" fill="green" />
	<circle cx="663" cy="39" r="39" fill="green" />
	<circle cx="741" cy="39" r="39" fill="green" />
	<circle cx="819" cy="39" r="39" fill="green" />
	<circle cx="897" cy="39" r="39" fill="green" />
	<circle cx="39" cy="117" r="39" fill="green" />
	<circle cx="117" cy="117" r="39" fill="green" />
	<circle cx="195" cy="117" r="39" fill="green" />
	<circle cx="273" cy="117" r="39" fill="green" />
	<circle cx="351" cy="117" r="39" fill="green" />
	<circle cx="429" cy="117" r="39" fill="green" />
	<circle cx="507" cy="117" r="39" fill="green" />
	<circle cx="585" cy="117" r="39" fill="green" />
	<circle cx="663" cy="117" r="39" fill="green" />
	<circle cx="741" cy="117" r="39" fill="green" />
	<circle cx="819" cy="117" r="39" fill="green" />
	<circle cx="897" cy="117" r="39" fill="green" />
	<circle cx="39" cy="195" r="39" fill="green" />
	<circle cx="117" cy="195" r="39" fill="green" />
	<circle cx="195" cy="195" r="39" fill="green" />
	<circle cx="273" cy="195" r="39" fill="green" />
	<circle cx="351" cy="195" r="39" fill="green" />
	<circle cx="429" cy="195" r="39" fill="green" />
	<circle cx="507" cy="195" r="39" fill="green" />
	<circle cx="585" cy="195" r="39" fill="green" />
	<circle cx="663" cy="195" r="39" fill="green" />
	<circle cx="741" cy="195" r="39" fill="green" />
	<circle cx="819" cy="195" r="39" fill="green" />
	<circle cx="897" cy="195" r="39" fill="green" />
	<circle cx="39" cy="273" r="39" fill="green" />
	<circle cx="117" cy="273" r="39" fill="green" />
	<circle cx="195" cy="273" r="39" fill="green" />
	<circle cx="273" cy="273" r="39" fill="green" />
	<circle cx="351" cy="273" r="39" fill="green" />
	<circle cx="429" cy="273" r="39" fill="green" />
	<circle cx="507" cy="273" r="39" fill="green" />
	<circle cx="585" cy="273" r="39" fill="green" />
	<circle cx="663" cy="273" r="39" fill="green" />
	<circle cx="741" cy="273" r="39" fill="green" />
	<circle cx="819" cy="273" r="39" fill="green" />
	<circle cx="897" cy="273" r="39" fill="green" />
	<circle cx="39" cy="351" r="39" fill="green" />
	<circle cx="117" cy="351" r="39" fill="green" />
	<circle cx="195" cy="351" r="39" fill="green" />
	<circle cx="273" cy="351" r="39" fill="green" />
	<circle cx="351" cy="351" r="39" fill="green" />
	<circle cx="429" cy="351" r="39" fill="green" />
	<circle cx="507" cy="351" r="39" fill="green" />
	<circle cx="585" cy="351" r="39" fill="green" />
	<circle cx="663" cy="351" r="39" fill="green" />
	<circle cx="741" cy="351" r="39" fill="green" />
	<circle cx="819" cy="351" r="39" fill="green" />
	<circle cx="897" cy="351" r="39" fill="green" />
	<circle cx="39" cy="429" r="39" fill="green" />
	<circle cx="117" cy="429" r="39" fill="green" />
	<circle cx="195" cy="429" r="39" fill="green" />
	<circle cx="273" cy="429" r="39" fill="green" />
	<circle cx="351" cy="429" r="39" fill="green" />
	<circle cx="429" cy="429" r="39" fill="green" />
	<circle cx="507" cy="429" r="39" fill="green" />
	<circle cx="585" cy="429" r="39" fill="green" />
	<circle cx="663" cy="429" r="39" fill="green" />
	<circle cx="741" cy="429" r="39" fill="green" />
	<circle cx="819" cy="429" r="39" fill="green" />
	<circle cx="897" cy="429" r="39" fill="green" />
	<circle cx="39" cy="507" r="39" fill="green" />
	<circle cx="117" cy="507" r="39" fill="green" />
	<circle cx="195" cy="507" r="39" fill="green" />
	<circle cx="273" cy="507" r="39" fill="green" />
	<circle cx="351" cy="507" r="39" fill="green" />
	<circle cx="429" cy="507" r="39" fill="green" />
	<circle cx="507" cy="507" r="39" fill="green" />
	<circle cx="585" cy="507" r="39" fill="green" />
	<circle cx="663" cy="507" r="39" fill="green" />
	<circle cx="741" cy="507" r="39" fill="green" />
	<circle cx="819" cy="507" r="39" fill="green" />
	<circle cx="897" cy="507" r="39" fill="green" />
	<circle cx="39" cy="585" r="39" fill="green" />
	<circle cx="117" cy="585" r="39" fill="green" />
	<circle cx="195" cy="585" r="39" fill="green" />
	<circle cx="273" cy="585" r="39" fill="green" />
	<circle cx="351" cy="585" r="39" fill="green" />
	<circle cx="429" cy="585" r="39" fill="green" />
	<circle cx="507" cy="585" r="39" fill="green" />
	<circle cx="585" cy="585" r="39" fill="green" />
	<circle cx="663" cy="585" r="39" fill="green" />
	<circle cx="741" cy="585" r="39" fill="green" />
	<circle cx="819" cy="585" r="39" fill="green" />
	<circle cx="897" cy="585" r="39" fill="green" />
	<circle cx="39" cy="663" r="39" fill="green" />
	<circle cx="117" cy="663" r="39" fill="green" />
	<circle cx="195" cy="663" r="39" fill="green" />
	<circle cx="273" cy="663" r="39" fill="green" />
	<circle cx="351" cy="663" r="39" fill="green" />
	<circle cx="429" cy="663" r="39" fill="green" />
	<circle cx="507" cy="663" r="39" fill="green" />
	<circle cx="585" cy="663" r="39" fill="green" />
	<circle cx="663" cy="663" r="39" fill="green" />
	<circle cx="741" cy="663" r="39" fill="green" />
	<circle cx="819" cy="663" r="39" fill="green" />
	<circle cx="897" cy="663" r="39" fill="green" />
</svg>