<svg version="1.1"
	baseProfile="full"
	width="100%" height="100%"
	xmlns="http://www.w3.org/2000/svg">
<polygon points = "400,0 0,692.82 800,692.82 " style="fill:red;"/>
<polygon points = "23.094,652.82 103.094,652.82 103.094,692.82 23.094,692.82 " style="fill:green;"/>
<polygon points = "103.094,652.82 183.094,652.82 183.094,692.82 103.094,692.82 " style="fill:green;"/>
<polygon points = "183.094,652.82 263.094,652.82 263.094,692.82 183.094,692.82 " style="fill:green;"/>
<polygon points = "263.094,652.82 343.094,652.82 343.094,692.82 263.094,692.82 " style="fill:green;"/>
<polygon points = "343.094,652.82 423.094,652.82 423.094,692.82 343.094,692.82 " style="fill:green;"/>
<polygon points = "423.094,652.82 503.094,652.82 503.094,692.82 423.094,692.82 " style="fill:green;"/>
<polygon points = "503.094,652.82 583.094,652.82 583.094,692.82 503.094,692.82 " style="fill:green;"/>
<polygon points = "583.094,652.82 663.094,652.82 663.094,692.82 583.094,692.82 " style="fill:green;"/>
<polygon points = "663.094,652.82 743.094,652.82 743.094,692.82 663.094,692.82 " style="fill:green;"/>
<polygon points = "46.188,612.82 126.188,612.82 126.188,652.82 46.188,652.82 " style="fill:green;"/>
<polygon points = "126.188,612.82 206.188,612.82 206.188,652.82 126.188,652.82 " style="fill:green;"/>
<polygon points = "206.188,612.82 286.188,612.82 286.188,652.82 206.188,652.82 " style="fill:green;"/>
<polygon points = "286.188,612.82 366.188,612.82 366.188,652.82 286.188,652.82 " style="fill:green;"/>
<polygon points = "366.188,612.82 446.188,612.82 446.188,652.82 366.188,652.82 " style="fill:green;"/>
<polygon points = "446.188,612.82 526.188,612.82 526.188,652.82 446.188,652.82 " style="fill:green;"/>
<polygon points = "526.188,612.82 606.188,612.82 606.188,652.82 526.188,652.82 " style="fill:green;"/>
<polygon points = "606.188,612.82 686.188,612.82 686.188,652.82 606.188,652.82 " style="fill:green;"/>
<polygon points = "69.282,572.82 149.282,572.82 149.282,612.82 69.282,612.82 " style="fill:green;"/>
<polygon points = "149.282,572.82 229.282,572.82 229.282,612.82 149.282,612.82 " style="fill:green;"/>
<polygon points = "229.282,572.82 309.282,572.82 309.282,612.82 229.282,612.82 " style="fill:green;"/>
<polygon points = "309.282,572.82 389.282,572.82 389.282,612.82 309.282,612.82 " style="fill:green;"/>
<polygon points = "389.282,572.82 469.282,572.82 469.282,612.82 389.282,612.82 " style="fill:green;"/>
<polygon points = "469.282,572.82 549.282,572.82 549.282,612.82 469.282,612.82 " style="fill:green;"/>
<polygon points = "549.282,572.82 629.282,572.82 629.282,612.82 549.282,612.82 " style="fill:green;"/>
<polygon points = "629.282,572.82 709.282,572.82 709.282,612.82 629.282,612.82 " style="fill:green;"/>
<polygon points = "92.376,532.82 172.376,532.82 172.376,572.82 92.376,572.82 " style="fill:green;"/>
<polygon points = "172.376,532.82 252.376,532.82 252.376,572.82 172.376,572.82 " style="fill:green;"/>
<polygon points = "252.376,532.82 332.376,532.82 332.376,572.82 252.376,572.82 " style="fill:green;"/>
<polygon points = "332.376,532.82 412.376,532.82 412.376,572.82 332.376,572.82 " style="fill:green;"/>
<polygon points = "412.376,532.82 492.376,532.82 492.376,572.82 412.376,572.82 " style="fill:green;"/>
<polygon points = "492.376,532.82 572.376,532.82 572.376,572.82 492.376,572.82 " style="fill:green;"/>
<polygon points = "572.376,532.82 652.376,532.82 652.376,572.82 572.376,572.82 " style="fill:green;"/>
<polygon points = "115.47,492.82 195.47,492.82 195.47,532.82 115.47,532.82 " style="fill:green;"/>
<polygon points = "195.47,492.82 275.47,492.82 275.47,532.82 195.47,532.82 " style="fill:green;"/>
<polygon points = "275.47,492.82 355.47,492.82 355.47,532.82 275.47,532.82 " style="fill:green;"/>
<polygon points = "355.47,492.82 435.47,492.82 435.47,532.82 355.47,532.82 " style="fill:green;"/>
<polygon points = "435.47,492.82 515.47,492.82 515.47,532.82 435.47,532.82 " style="fill:green;"/>
<polygon points = "515.47,492.82 595.47,492.82 595.47,532.82 515.47,532.82 " style="fill:green;"/>
<polygon points = "595.47,492.82 675.47,492.82 675.47,532.82 595.47,532.82 " style="fill:green;"/>
<polygon points = "138.564,452.82 218.564,452.82 218.564,492.82 138.564,492.82 " style="fill:green;"/>
<polygon points = "218.564,452.82 298.564,452.82 298.564,492.82 218.564,492.82 " style="fill:green;"/>
<polygon points = "298.564,452.82 378.564,452.82 378.564,492.82 298.564,492.82 " style="fill:green;"/>
<polygon points = "378.564,452.82 458.564,452.82 458.564,492.82 378.564,492.82 " style="fill:green;"/>
<polygon points = "458.564,452.82 538.564,452.82 538.564,492.82 458.564,492.82 " style="fill:green;"/>
<polygon points = "538.564,452.82 618.564,452.82 618.564,492.82 538.564,492.82 " style="fill:green;"/>
<polygon points = "161.658,412.82 241.658,412.82 241.658,452.82 161.658,452.82 " style="fill:green;"/>
<polygon points = "241.658,412.82 321.658,412.82 321.658,452.82 241.658,452.82 " style="fill:green;"/>
<polygon points = "321.658,412.82 401.658,412.82 401.658,452.82 321.658,452.82 " style="fill:green;"/>
<polygon points = "401.658,412.82 481.658,412.82 481.658,452.82 401.658,452.82 " style="fill:green;"/>
<polygon points = "481.658,412.82 561.658,412.82 561.658,452.82 481.658,452.82 " style="fill:green;"/>
<polygon points = "184.752,372.82 264.752,372.82 264.752,412.82 184.752,412.82 " style="fill:green;"/>
<polygon points = "264.752,372.82 344.752,372.82 344.752,412.82 264.752,412.82 " style="fill:green;"/>
<polygon points = "344.752,372.82 424.752,372.82 424.752,412.82 344.752,412.82 " style="fill:green;"/>
<polygon points = "424.752,372.82 504.752,372.82 504.752,412.82 424.752,412.82 " style="fill:green;"/>
<polygon points = "504.752,372.82 584.752,372.82 584.752,412.82 504.752,412.82 " style="fill:green;"/>
<polygon points = "207.846,332.82 287.846,332.82 287.846,372.82 207.846,372.82 " style="fill:green;"/>
<polygon points = "287.846,332.82 367.846,332.82 367.846,372.82 287.846,372.82 " style="fill:green;"/>
<polygon points = "367.846,332.82 447.846,332.82 447.846,372.82 367.846,372.82 " style="fill:green;"/>
<polygon points = "447.846,332.82 527.846,332.82 527.846,372.82 447.846,372.82 " style="fill:green;"/>
<polygon points = "230.94,292.82 310.94,292.82 310.94,332.82 230.94,332.82 " style="fill:green;"/>
<polygon points = "310.94,292.82 390.94,292.82 390.94,332.82 310.94,332.82 " style="fill:green;"/>
<polygon points = "390.94,292.82 470.94,292.82 470.94,332.82 390.94,332.82 " style="fill:green;"/>
<polygon points = "470.94,292.82 550.94,292.82 550.94,332.82 470.94,332.82 " style="fill:green;"/>
<polygon points = "254.034,252.82 334.034,252.82 334.034,292.82 254.034,292.82 " style="fill:green;"/>
<polygon points = "334.034,252.82 414.034,252.82 414.034,292.82 334.034,292.82 " style="fill:green;"/>
<polygon points = "414.034,252.82 494.034,252.82 494.034,292.82 414.034,292.82 " style="fill:green;"/>
<polygon points = "277.128,212.82 357.128,212.82 357.128,252.82 277.128,252.82 " style="fill:green;"/>
<polygon points = "357.128,212.82 437.128,212.82 437.128,252.82 357.128,252.82 " style="fill:green;"/>
<polygon points = "437.128,212.82 517.128,212.82 517.128,252.82 437.128,252.82 " style="fill:green;"/>
<polygon points = "300.222,172.82 380.222,172.82 380.222,212.82 300.222,212.82 " style="fill:green;"/>
<polygon points = "380.222,172.82 460.222,172.82 460.222,212.82 380.222,212.82 " style="fill:green;"/>
<polygon points = "323.316,132.82 403.316,132.82 403.316,172.82 323.316,172.82 " style="fill:green;"/>
<polygon points = "346.41,92.8203 426.41,92.8203 426.41,132.82 346.41,132.82 " style="fill:green;"/>
</svg>