<svg version="1.1"
	baseProfile="full"
	width="100%" height="100%"
	xmlns="http://www.w3.org/2000/svg">
<polygon points = "200,0 212.558,0.394654 225.067,1.57706 237.476,3.54255 249.738,6.28337 261.803,9.7887 273.625,14.0447 285.156,19.0346 296.351,24.7387 307.165,31.1344 317.557,38.1966 327.485,45.8974 336.909,54.2063 345.794,63.0906 354.103,72.5152 361.803,82.4429 368.866,92.8346 375.261,103.649 380.965,114.844 385.955,126.375 390.211,138.197 393.717,150.262 396.457,162.524 398.423,174.933 399.605,187.442 400,200 399.605,212.558 398.423,225.067 396.457,237.476 393.717,249.738 390.211,261.803 385.955,273.625 380.965,285.156 375.261,296.351 368.866,307.165 361.803,317.557 354.103,327.485 345.794,336.909 336.909,345.794 327.485,354.103 317.557,361.803 307.165,368.866 296.351,375.261 285.156,380.965 273.625,385.955 261.803,390.211 249.738,393.717 237.476,396.457 225.067,398.423 212.558,399.605 200,400 187.442,399.605 174.933,398.423 162.524,396.457 150.262,393.717 138.197,390.211 126.375,385.955 114.844,380.965 103.649,375.261 92.8346,368.866 82.443,361.803 72.5152,354.103 63.0906,345.794 54.2063,336.909 45.8974,327.485 38.1966,317.557 31.1344,307.165 24.7387,296.351 19.0346,285.156 14.0447,273.625 9.7887,261.803 6.28337,249.738 3.54255,237.476 1.57706,225.067 0.394654,212.558 0,200 0.394654,187.442 1.57706,174.933 3.54255,162.524 6.28337,150.262 9.7887,138.197 14.0447,126.375 19.0346,114.844 24.7387,103.649 31.1344,92.8346 38.1966,82.443 45.8974,72.5152 54.2063,63.0906 63.0906,54.2063 72.5152,45.8974 82.4429,38.1966 92.8346,31.1344 103.649,24.7387 114.844,19.0346 126.375,14.0447 138.197,9.7887 150.262,6.28337 162.524,3.54255 174.933,1.57706 187.442,0.394654 " style="fill:red;"/>
<polygon points = "200,0 186.5,23.3827 213.5,23.3827 " style="fill:green;"/>
<polygon points = "100,27 86.5,50.3827 113.5,50.3827 " style="fill:green;"/>
<polygon points = "100,27 127,27 113.5,50.3827 " style="fill:green;"/>
<polygon points = "127,27 113.5,50.3827 140.5,50.3827 " style="fill:green;"/>
<polygon points = "127,27 154,27 140.5,50.3827 " style="fill:green;"/>
<polygon points = "154,27 140.5,50.3827 167.5,50.3827 " style="fill:green;"/>
<polygon points = "154,27 181,27 167.5,50.3827 " style="fill:green;"/>
<polygon points = "181,27 167.5,50.3827 194.5,50.3827 " style="fill:green;"/>
<polygon points = "181,27 208,27 194.5,50.3827 " style="fill:green;"/>
<polygon points = "208,27 194.5,50.3827 221.5,50.3827 " style="fill:green;"/>
<polygon points = "208,27 235,27 221.5,50.3827 " style="fill:green;"/>
<polygon points = "235,27 221.5,50.3827 248.5,50.3827 " style="fill:green;"/>
<polygon points = "235,27 262,27 248.5,50.3827 " style="fill:green;"/>
<polygon points = "262,27 248.5,50.3827 275.5,50.3827 " style="fill:green;"/>
<polygon points = "262,27 289,27 275.5,50.3827 " style="fill:green;"/>
<polygon points = "289,27 275.5,50.3827 302.5,50.3827 " style="fill:green;"/>
<polygon points = "64,54 50.5,77.3827 77.5,77.3827 " style="fill:green;"/>
<polygon points = "64,54 91,54 77.5,77.3827 " style="fill:green;"/>
<polygon points = "91,54 77.5,77.3827 104.5,77.3827 " style="fill:green;"/>
<polygon points = "91,54 118,54 104.5,77.3827 " style="fill:green;"/>
<polygon points = "118,54 104.5,77.3827 131.5,77.3827 " style="fill:green;"/>
<polygon points = "118,54 145,54 131.5,77.3827 " style="fill:green;"/>
<polygon points = "145,54 131.5,77.3827 158.5,77.3827 " style="fill:green;"/>
<polygon points = "145,54 172,54 158.5,77.3827 " style="fill:green;"/>
<polygon points = "172,54 158.5,77.3827 185.5,77.3827 " style="fill:green;"/>
<polygon points = "172,54 199,54 185.5,77.3827 " style="fill:green;"/>
<polygon points = "199,54 185.5,77.3827 212.5,77.3827 " style="fill:green;"/>
<polygon points = "199,54 226,54 212.5,77.3827 " style="fill:green;"/>
<polygon points = "226,54 212.5,77.3827 239.5,77.3827 " style="fill:green;"/>
<polygon points = "226,54 253,54 239.5,77.3827 " style="fill:green;"/>
<polygon points = "253,54 239.5,77.3827 266.5,77.3827 " style="fill:green;"/>
<polygon points = "253,54 280,54 266.5,77.3827 " style="fill:green;"/>
<polygon points = "280,54 266.5,77.3827 293.5,77.3827 " style="fill:green;"/>
<polygon points = "280,54 307,54 293.5,77.3827 " style="fill:green;"/>
<polygon points = "307,54 293.5,77.3827 320.5,77.3827 " style="fill:green;"/>
<polygon points = "307,54 334,54 320.5,77.3827 " style="fill:green;"/>
<polygon points = "334,54 320.5,77.3827 347.5,77.3827 " style="fill:green;"/>
<polygon points = "40,81 26.5,104.383 53.5,104.383 " style="fill:green;"/>
<polygon points = "40,81 67,81 53.5,104.383 " style="fill:green;"/>
<polygon points = "67,81 53.5,104.383 80.5,104.383 " style="fill:green;"/>
<polygon points = "67,81 94,81 80.5,104.383 " style="fill:green;"/>
<polygon points = "94,81 80.5,104.383 107.5,104.383 " style="fill:green;"/>
<polygon points = "94,81 121,81 107.5,104.383 " style="fill:green;"/>
<polygon points = "121,81 107.5,104.383 134.5,104.383 " style="fill:green;"/>
<polygon points = "121,81 148,81 134.5,104.383 " style="fill:green;"/>
<polygon points = "148,81 134.5,104.383 161.5,104.383 " style="fill:green;"/>
<polygon points = "148,81 175,81 161.5,104.383 " style="fill:green;"/>
<polygon points = "175,81 161.5,104.383 188.5,104.383 " style="fill:green;"/>
<polygon points = "175,81 202,81 188.5,104.383 " style="fill:green;"/>
<polygon points = "202,81 188.5,104.383 215.5,104.383 " style="fill:green;"/>
<polygon points = "202,81 229,81 215.5,104.383 " style="fill:green;"/>
<polygon points = "229,81 215.5,104.383 242.5,104.383 " style="fill:green;"/>
<polygon points = "229,81 256,81 242.5,104.383 " style="fill:green;"/>
<polygon points = "256,81 242.5,104.383 269.5,104.383 " style="fill:green;"/>
<polygon points = "256,81 283,81 269.5,104.383 " style="fill:green;"/>
<polygon points = "283,81 269.5,104.383 296.5,104.383 " style="fill:green;"/>
<polygon points = "283,81 310,81 296.5,104.383 " style="fill:green;"/>
<polygon points = "310,81 296.5,104.383 323.5,104.383 " style="fill:green;"/>
<polygon points = "310,81 337,81 323.5,104.383 " style="fill:green;"/>
<polygon points = "337,81 323.5,104.383 350.5,104.383 " style="fill:green;"/>
<polygon points = "26,108 12.5,131.383 39.5,131.383 " style="fill:green;"/>
<polygon points = "26,108 53,108 39.5,131.383 " style="fill:green;"/>
<polygon points = "53,108 39.5,131.383 66.5,131.383 " style="fill:green;"/>
<polygon points = "53,108 80,108 66.5,131.383 " style="fill:green;"/>
<polygon points = "80,108 66.5,131.383 93.5,131.383 " style="fill:green;"/>
<polygon points = "80,108 107,108 93.5,131.383 " style="fill:green;"/>
<polygon points = "107,108 93.5,131.383 120.5,131.383 " style="fill:green;"/>
<polygon points = "107,108 134,108 120.5,131.383 " style="fill:green;"/>
<polygon points = "134,108 120.5,131.383 147.5,131.383 " style="fill:green;"/>
<polygon points = "134,108 161,108 147.5,131.383 " style="fill:green;"/>
<polygon points = "161,108 147.5,131.383 174.5,131.383 " style="fill:green;"/>
<polygon points = "161,108 188,108 174.5,131.383 " style="fill:green;"/>
<polygon points = "188,108 174.5,131.383 201.5,131.383 " style="fill:green;"/>
<polygon points = "188,108 215,108 201.5,131.383 " style="fill:green;"/>
<polygon points = "215,108 201.5,131.383 228.5,131.383 " style="fill:green;"/>
<polygon points = "215,108 242,108 228.5,131.383 " style="fill:green;"/>
<polygon points = "242,108 228.5,131.383 255.5,131.383 " style="fill:green;"/>
<polygon points = "242,108 269,108 255.5,131.383 " style="fill:green;"/>
<polygon points = "269,108 255.5,131.383 282.5,131.383 " style="fill:green;"/>
<polygon points = "269,108 296,108 282.5,131.383 " style="fill:green;"/>
<polygon points = "296,108 282.5,131.383 309.5,131.383 " style="fill:green;"/>
<polygon points = "296,108 323,108 309.5,131.383 " style="fill:green;"/>
<polygon points = "323,108 309.5,131.383 336.5,131.383 " style="fill:green;"/>
<polygon points = "323,108 350,108 336.5,131.383 " style="fill:green;"/>
<polygon points = "350,108 336.5,131.383 363.5,131.383 " style="fill:green;"/>
<polygon points = "350,108 377,108 363.5,131.383 " style="fill:green;"/>
<polygon points = "18,135 4.5,158.383 31.5,158.383 " style="fill:green;"/>
<polygon points = "18,135 45,135 31.5,158.383 " style="fill:green;"/>
<polygon points = "45,135 31.5,158.383 58.5,158.383 " style="fill:green;"/>
<polygon points = "45,135 72,135 58.5,158.383 " style="fill:green;"/>
<polygon points = "72,135 58.5,158.383 85.5,158.383 " style="fill:green;"/>
<polygon points = "72,135 99,135 85.5,158.383 " style="fill:green;"/>
<polygon points = "99,135 85.5,158.383 112.5,158.383 " style="fill:green;"/>
<polygon points = "99,135 126,135 112.5,158.383 " style="fill:green;"/>
<polygon points = "126,135 112.5,158.383 139.5,158.383 " style="fill:green;"/>
<polygon points = "126,135 153,135 139.5,158.383 " style="fill:green;"/>
<polygon points = "153,135 139.5,158.383 166.5,158.383 " style="fill:green;"/>
<polygon points = "153,135 180,135 166.5,158.383 " style="fill:green;"/>
<polygon points = "180,135 166.5,158.383 193.5,158.383 " style="fill:green;"/>
<polygon points = "180,135 207,135 193.5,158.383 " style="fill:green;"/>
<polygon points = "207,135 193.5,158.383 220.5,158.383 " style="fill:green;"/>
<polygon points = "207,135 234,135 220.5,158.383 " style="fill:green;"/>
<polygon points = "234,135 220.5,158.383 247.5,158.383 " style="fill:green;"/>
<polygon points = "234,135 261,135 247.5,158.383 " style="fill:green;"/>
<polygon points = "261,135 247.5,158.383 274.5,158.383 " style="fill:green;"/>
<polygon points = "261,135 288,135 274.5,158.383 " style="fill:green;"/>
<polygon points = "288,135 274.5,158.383 301.5,158.383 " style="fill:green;"/>
<polygon points = "288,135 315,135 301.5,158.383 " style="fill:green;"/>
<polygon points = "315,135 301.5,158.383 328.5,158.383 " style="fill:green;"/>
<polygon points = "315,135 342,135 328.5,158.383 " style="fill:green;"/>
<polygon points = "342,135 328.5,158.383 355.5,158.383 " style="fill:green;"/>
<polygon points = "342,135 369,135 355.5,158.383 " style="fill:green;"/>
<polygon points = "369,135 355.5,158.383 382.5,158.383 " style="fill:green;"/>
<polygon points = "15,162 1.5,185.383 28.5,185.383 " style="fill:green;"/>
<polygon points = "15,162 42,162 28.5,185.383 " style="fill:green;"/>
<polygon points = "42,162 28.5,185.383 55.5,185.383 " style="fill:green;"/>
<polygon points = "42,162 69,162 55.5,185.383 " style="fill:green;"/>
<polygon points = "69,162 55.5,185.383 82.5,185.383 " style="fill:green;"/>
<polygon points = "69,162 96,162 82.5,185.383 " style="fill:green;"/>
<polygon points = "96,162 82.5,185.383 109.5,185.383 " style="fill:green;"/>
<polygon points = "96,162 123,162 109.5,185.383 " style="fill:green;"/>
<polygon points = "123,162 109.5,185.383 136.5,185.383 " style="fill:green;"/>
<polygon points = "123,162 150,162 136.5,185.383 " style="fill:green;"/>
<polygon points = "150,162 136.5,185.383 163.5,185.383 " style="fill:green;"/>
<polygon points = "150,162 177,162 163.5,185.383 " style="fill:green;"/>
<polygon points = "177,162 163.5,185.383 190.5,185.383 " style="fill:green;"/>
<polygon points = "177,162 204,162 190.5,185.383 " style="fill:green;"/>
<polygon points = "204,162 190.5,185.383 217.5,185.383 " style="fill:green;"/>
<polygon points = "204,162 231,162 217.5,185.383 " style="fill:green;"/>
<polygon points = "231,162 217.5,185.383 244.5,185.383 " style="fill:green;"/>
<polygon points = "231,162 258,162 244.5,185.383 " style="fill:green;"/>
<polygon points = "258,162 244.5,185.383 271.5,185.383 " style="fill:green;"/>
<polygon points = "258,162 285,162 271.5,185.383 " style="fill:green;"/>
<polygon points = "285,162 271.5,185.383 298.5,185.383 " style="fill:green;"/>
<polygon points = "285,162 312,162 298.5,185.383 " style="fill:green;"/>
<polygon points = "312,162 298.5,185.383 325.5,185.383 " style="fill:green;"/>
<polygon points = "312,162 339,162 325.5,185.383 " style="fill:green;"/>
<polygon points = "339,162 325.5,185.383 352.5,185.383 " style="fill:green;"/>
<polygon points = "339,162 366,162 352.5,185.383 " style="fill:green;"/>
<polygon points = "366,162 352.5,185.383 379.5,185.383 " style="fill:green;"/>
<polygon points = "366,162 393,162 379.5,185.383 " style="fill:green;"/>
<polygon points = "14,189 0.5,212.383 27.5,212.383 " style="fill:green;"/>
<polygon points = "14,189 41,189 27.5,212.383 " style="fill:green;"/>
<polygon points = "41,189 27.5,212.383 54.5,212.383 " style="fill:green;"/>
<polygon points = "41,189 68,189 54.5,212.383 " style="fill:green;"/>
<polygon points = "68,189 54.5,212.383 81.5,212.383 " style="fill:green;"/>
<polygon points = "68,189 95,189 81.5,212.383 " style="fill:green;"/>
<polygon points = "95,189 81.5,212.383 108.5,212.383 " style="fill:green;"/>
<polygon points = "95,189 122,189 108.5,212.383 " style="fill:green;"/>
<polygon points = "122,189 108.5,212.383 135.5,212.383 " style="fill:green;"/>
<polygon points = "122,189 149,189 135.5,212.383 " style="fill:green;"/>
<polygon points = "149,189 135.5,212.383 162.5,212.383 " style="fill:green;"/>
<polygon points = "149,189 176,189 162.5,212.383 " style="fill:green;"/>
<polygon points = "176,189 162.5,212.383 189.5,212.383 " style="fill:green;"/>
<polygon points = "176,189 203,189 189.5,212.383 " style="fill:green;"/>
<polygon points = "203,189 189.5,212.383 216.5,212.383 " style="fill:green;"/>
<polygon points = "203,189 230,189 216.5,212.383 " style="fill:green;"/>
<polygon points = "230,189 216.5,212.383 243.5,212.383 " style="fill:green;"/>
<polygon points = "230,189 257,189 243.5,212.383 " style="fill:green;"/>
<polygon points = "257,189 243.5,212.383 270.5,212.383 " style="fill:green;"/>
<polygon points = "257,189 284,189 270.5,212.383 " style="fill:green;"/>
<polygon points = "284,189 270.5,212.383 297.5,212.383 " style="fill:green;"/>
<polygon points = "284,189 311,189 297.5,212.383 " style="fill:green;"/>
<polygon points = "311,189 297.5,212.383 324.5,212.383 " style="fill:green;"/>
<polygon points = "311,189 338,189 324.5,212.383 " style="fill:green;"/>
<polygon points = "338,189 324.5,212.383 351.5,212.383 " style="fill:green;"/>
<polygon points = "338,189 365,189 351.5,212.383 " style="fill:green;"/>
<polygon points = "365,189 351.5,212.383 378.5,212.383 " style="fill:green;"/>
<polygon points = "365,189 392,189 378.5,212.383 " style="fill:green;"/>
<polygon points = "18,216 4.5,239.383 31.5,239.383 " style="fill:green;"/>
<polygon points = "18,216 45,216 31.5,239.383 " style="fill:green;"/>
<polygon points = "45,216 31.5,239.383 58.5,239.383 " style="fill:green;"/>
<polygon points = "45,216 72,216 58.5,239.383 " style="fill:green;"/>
<polygon points = "72,216 58.5,239.383 85.5,239.383 " style="fill:green;"/>
<polygon points = "72,216 99,216 85.5,239.383 " style="fill:green;"/>
<polygon points = "99,216 85.5,239.383 112.5,239.383 " style="fill:green;"/>
<polygon points = "99,216 126,216 112.5,239.383 " style="fill:green;"/>
<polygon points = "126,216 112.5,239.383 139.5,239.383 " style="fill:green;"/>
<polygon points = "126,216 153,216 139.5,239.383 " style="fill:green;"/>
<polygon points = "153,216 139.5,239.383 166.5,239.383 " style="fill:green;"/>
<polygon points = "153,216 180,216 166.5,239.383 " style="fill:green;"/>
<polygon points = "180,216 166.5,239.383 193.5,239.383 " style="fill:green;"/>
<polygon points = "180,216 207,216 193.5,239.383 " style="fill:green;"/>
<polygon points = "207,216 193.5,239.383 220.5,239.383 " style="fill:green;"/>
<polygon points = "207,216 234,216 220.5,239.383 " style="fill:green;"/>
<polygon points = "234,216 220.5,239.383 247.5,239.383 " style="fill:green;"/>
<polygon points = "234,216 261,216 247.5,239.383 " style="fill:green;"/>
<polygon points = "261,216 247.5,239.383 274.5,239.383 " style="fill:green;"/>
<polygon points = "261,216 288,216 274.5,239.383 " style="fill:green;"/>
<polygon points = "288,216 274.5,239.383 301.5,239.383 " style="fill:green;"/>
<polygon points = "288,216 315,216 301.5,239.383 " style="fill:green;"/>
<polygon points = "315,216 301.5,239.383 328.5,239.383 " style="fill:green;"/>
<polygon points = "315,216 342,216 328.5,239.383 " style="fill:green;"/>
<polygon points = "342,216 328.5,239.383 355.5,239.383 " style="fill:green;"/>
<polygon points = "342,216 369,216 355.5,239.383 " style="fill:green;"/>
<polygon points = "369,216 355.5,239.383 382.5,239.383 " style="fill:green;"/>
<polygon points = "369,216 396,216 382.5,239.383 " style="fill:green;"/>
<polygon points = "25,243 11.5,266.383 38.5,266.383 " style="fill:green;"/>
<polygon points = "25,243 52,243 38.5,266.383 " style="fill:green;"/>
<polygon points = "52,243 38.5,266.383 65.5,266.383 " style="fill:green;"/>
<polygon points = "52,243 79,243 65.5,266.383 " style="fill:green;"/>
<polygon points = "79,243 65.5,266.383 92.5,266.383 " style="fill:green;"/>
<polygon points = "79,243 106,243 92.5,266.383 " style="fill:green;"/>
<polygon points = "106,243 92.5,266.383 119.5,266.383 " style="fill:green;"/>
<polygon points = "106,243 133,243 119.5,266.383 " style="fill:green;"/>
<polygon points = "133,243 119.5,266.383 146.5,266.383 " style="fill:green;"/>
<polygon points = "133,243 160,243 146.5,266.383 " style="fill:green;"/>
<polygon points = "160,243 146.5,266.383 173.5,266.383 " style="fill:green;"/>
<polygon points = "160,243 187,243 173.5,266.383 " style="fill:green;"/>
<polygon points = "187,243 173.5,266.383 200.5,266.383 " style="fill:green;"/>
<polygon points = "187,243 214,243 200.5,266.383 " style="fill:green;"/>
<polygon points = "214,243 200.5,266.383 227.5,266.383 " style="fill:green;"/>
<polygon points = "214,243 241,243 227.5,266.383 " style="fill:green;"/>
<polygon points = "241,243 227.5,266.383 254.5,266.383 " style="fill:green;"/>
<polygon points = "241,243 268,243 254.5,266.383 " style="fill:green;"/>
<polygon points = "268,243 254.5,266.383 281.5,266.383 " style="fill:green;"/>
<polygon points = "268,243 295,243 281.5,266.383 " style="fill:green;"/>
<polygon points = "295,243 281.5,266.383 308.5,266.383 " style="fill:green;"/>
<polygon points = "295,243 322,243 308.5,266.383 " style="fill:green;"/>
<polygon points = "322,243 308.5,266.383 335.5,266.383 " style="fill:green;"/>
<polygon points = "322,243 349,243 335.5,266.383 " style="fill:green;"/>
<polygon points = "349,243 335.5,266.383 362.5,266.383 " style="fill:green;"/>
<polygon points = "349,243 376,243 362.5,266.383 " style="fill:green;"/>
<polygon points = "37,270 23.5,293.383 50.5,293.383 " style="fill:green;"/>
<polygon points = "37,270 64,270 50.5,293.383 " style="fill:green;"/>
<polygon points = "64,270 50.5,293.383 77.5,293.383 " style="fill:green;"/>
<polygon points = "64,270 91,270 77.5,293.383 " style="fill:green;"/>
<polygon points = "91,270 77.5,293.383 104.5,293.383 " style="fill:green;"/>
<polygon points = "91,270 118,270 104.5,293.383 " style="fill:green;"/>
<polygon points = "118,270 104.5,293.383 131.5,293.383 " style="fill:green;"/>
<polygon points = "118,270 145,270 131.5,293.383 " style="fill:green;"/>
<polygon points = "145,270 131.5,293.383 158.5,293.383 " style="fill:green;"/>
<polygon points = "145,270 172,270 158.5,293.383 " style="fill:green;"/>
<polygon points = "172,270 158.5,293.383 185.5,293.383 " style="fill:green;"/>
<polygon points = "172,270 199,270 185.5,293.383 " style="fill:green;"/>
<polygon points = "199,270 185.5,293.383 212.5,293.383 " style="fill:green;"/>
<polygon points = "199,270 226,270 212.5,293.383 " style="fill:green;"/>
<polygon points = "226,270 212.5,293.383 239.5,293.383 " style="fill:green;"/>
<polygon points = "226,270 253,270 239.5,293.383 " style="fill:green;"/>
<polygon points = "253,270 239.5,293.383 266.5,293.383 " style="fill:green;"/>
<polygon points = "253,270 280,270 266.5,293.383 " style="fill:green;"/>
<polygon points = "280,270 266.5,293.383 293.5,293.383 " style="fill:green;"/>
<polygon points = "280,270 307,270 293.5,293.383 " style="fill:green;"/>
<polygon points = "307,270 293.5,293.383 320.5,293.383 " style="fill:green;"/>
<polygon points = "307,270 334,270 320.5,293.383 " style="fill:green;"/>
<polygon points = "334,270 320.5,293.383 347.5,293.383 " style="fill:green;"/>
<polygon points = "334,270 361,270 347.5,293.383 " style="fill:green;"/>
<polygon points = "361,270 347.5,293.383 374.5,293.383 " style="fill:green;"/>
<polygon points = "54,297 40.5,320.383 67.5,320.383 " style="fill:green;"/>
<polygon points = "54,297 81,297 67.5,320.383 " style="fill:green;"/>
<polygon points = "81,297 67.5,320.383 94.5,320.383 " style="fill:green;"/>
<polygon points = "81,297 108,297 94.5,320.383 " style="fill:green;"/>
<polygon points = "108,297 94.5,320.383 121.5,320.383 " style="fill:green;"/>
<polygon points = "108,297 135,297 121.5,320.383 " style="fill:green;"/>
<polygon points = "135,297 121.5,320.383 148.5,320.383 " style="fill:green;"/>
<polygon points = "135,297 162,297 148.5,320.383 " style="fill:green;"/>
<polygon points = "162,297 148.5,320.383 175.5,320.383 " style="fill:green;"/>
<polygon points = "162,297 189,297 175.5,320.383 " style="fill:green;"/>
<polygon points = "189,297 175.5,320.383 202.5,320.383 " style="fill:green;"/>
<polygon points = "189,297 216,297 202.5,320.383 " style="fill:green;"/>
<polygon points = "216,297 202.5,320.383 229.5,320.383 " style="fill:green;"/>
<polygon points = "216,297 243,297 229.5,320.383 " style="fill:green;"/>
<polygon points = "243,297 229.5,320.383 256.5,320.383 " style="fill:green;"/>
<polygon points = "243,297 270,297 256.5,320.383 " style="fill:green;"/>
<polygon points = "270,297 256.5,320.383 283.5,320.383 " style="fill:green;"/>
<polygon points = "270,297 297,297 283.5,320.383 " style="fill:green;"/>
<polygon points = "297,297 283.5,320.383 310.5,320.383 " style="fill:green;"/>
<polygon points = "297,297 324,297 310.5,320.383 " style="fill:green;"/>
<polygon points = "324,297 310.5,320.383 337.5,320.383 " style="fill:green;"/>
<polygon points = "324,297 351,297 337.5,320.383 " style="fill:green;"/>
<polygon points = "79,324 65.5,347.383 92.5,347.383 " style="fill:green;"/>
<polygon points = "79,324 106,324 92.5,347.383 " style="fill:green;"/>
<polygon points = "106,324 92.5,347.383 119.5,347.383 " style="fill:green;"/>
<polygon points = "106,324 133,324 119.5,347.383 " style="fill:green;"/>
<polygon points = "133,324 119.5,347.383 146.5,347.383 " style="fill:green;"/>
<polygon points = "133,324 160,324 146.5,347.383 " style="fill:green;"/>
<polygon points = "160,324 146.5,347.383 173.5,347.383 " style="fill:green;"/>
<polygon points = "160,324 187,324 173.5,347.383 " style="fill:green;"/>
<polygon points = "187,324 173.5,347.383 200.5,347.383 " style="fill:green;"/>
<polygon points = "187,324 214,324 200.5,347.383 " style="fill:green;"/>
<polygon points = "214,324 200.5,347.383 227.5,347.383 " style="fill:green;"/>
<polygon points = "214,324 241,324 227.5,347.383 " style="fill:green;"/>
<polygon points = "241,324 227.5,347.383 254.5,347.383 " style="fill:green;"/>
<polygon points = "241,324 268,324 254.5,347.383 " style="fill:green;"/>
<polygon points = "268,324 254.5,347.383 281.5,347.383 " style="fill:green;"/>
<polygon points = "268,324 295,324 281.5,347.383 " style="fill:green;"/>
<polygon points = "295,324 281.5,347.383 308.5,347.383 " style="fill:green;"/>
<polygon points = "295,324 322,324 308.5,347.383 " style="fill:green;"/>
<polygon points = "116,351 102.5,374.383 129.5,374.383 " style="fill:green;"/>
<polygon points = "116,351 143,351 129.5,374.383 " style="fill:green;"/>
<polygon points = "143,351 129.5,374.383 156.5,374.383 " style="fill:green;"/>
<polygon points = "143,351 170,351 156.5,374.383 " style="fill:green;"/>
<polygon points = "170,351 156.5,374.383 183.5,374.383 " style="fill:green;"/>
<polygon points = "170,351 197,351 183.5,374.383 " style="fill:green;"/>
<polygon points = "197,351 183.5,374.383 210.5,374.383 " style="fill:green;"/>
<polygon points = "197,351 224,351 210.5,374.383 " style="fill:green;"/>
<polygon points = "224,351 210.5,374.383 237.5,374.383 " style="fill:green;"/>
<polygon points = "224,351 251,351 237.5,374.383 " style="fill:green;"/>
<polygon points = "251,351 237.5,374.383 264.5,374.383 " style="fill:green;"/>
<polygon points = "251,351 278,351 264.5,374.383 " style="fill:green;"/>
<polygon points = "278,351 264.5,374.383 291.5,374.383 " style="fill:green;"/>
<polygon points = "278,351 305,351 291.5,374.383 " style="fill:green;"/>
</svg>