<svg version="1.1"
	baseProfile="full"
	width="100%" height="100%"
	xmlns="http://www.w3.org/2000/svg">
<polygon points = "0,0 300,0 300,100 0,100 " style="fill:red;"/>
<polygon points = "0,0 80,0 80,40 0,40 " style="fill:green;"/>
<polygon points = "80,0 160,0 160,40 80,40 " style="fill:green;"/>
<polygon points = "160,0 240,0 240,40 160,40 " style="fill:green;"/>
<polygon points = "0,40 80,40 80,80 0,80 " style="fill:green;"/>
<polygon points = "80,40 160,40 160,80 80,80 " style="fill:green;"/>
<polygon points = "160,40 240,40 240,80 160,80 " style="fill:green;"/>
<polygon points = "240,0 280,0 280,80 240,80 " style="fill:green;"/>
</svg>