<svg version="1.1"
	baseProfile="full"
	width="100%" height="100%"
	xmlns="http://www.w3.org/2000/svg">
<polygon points = "0,0 300,0 300,100 0,100 " style="fill:red;"/>
<polygon points = "20,0 21.2558,0.0394654 22.5067,0.157706 23.7476,0.354255 24.9738,0.628337 26.1803,0.97887 27.3625,1.40447 28.5156,1.90346 29.6351,2.47387 30.7165,3.11344 31.7557,3.81966 32.7485,4.58974 33.6909,5.42063 34.5794,6.30906 35.4103,7.25152 36.1803,8.24429 36.8866,9.28346 37.5261,10.3649 38.0965,11.4844 38.5955,12.6375 39.0211,13.8197 39.3717,15.0262 39.6457,16.2524 39.8423,17.4933 39.9605,18.7442 40,20 39.9605,21.2558 39.8423,22.5067 39.6457,23.7476 39.3717,24.9738 39.0211,26.1803 38.5955,27.3625 38.0965,28.5156 37.5261,29.6351 36.8866,30.7165 36.1803,31.7557 35.4103,32.7485 34.5794,33.6909 33.6909,34.5794 32.7485,35.4103 31.7557,36.1803 30.7165,36.8866 29.6351,37.5261 28.5156,38.0965 27.3625,38.5955 26.1803,39.0211 24.9738,39.3717 23.7476,39.6457 22.5067,39.8423 21.2558,39.9605 20,40 18.7442,39.9605 17.4933,39.8423 16.2524,39.6457 15.0262,39.3717 13.8197,39.0211 12.6375,38.5955 11.4844,38.0965 10.3649,37.5261 9.28346,36.8866 8.2443,36.1803 7.25152,35.4103 6.30906,34.5794 5.42063,33.6909 4.58974,32.7485 3.81966,31.7557 3.11344,30.7165 2.47387,29.6351 1.90346,28.5156 1.40447,27.3625 0.97887,26.1803 0.628337,24.9738 0.354255,23.7476 0.157706,22.5067 0.0394654,21.2558 0,20 0.0394654,18.7442 0.157706,17.4933 0.354255,16.2524 0.628337,15.0262 0.97887,13.8197 1.40447,12.6375 1.90346,11.4844 2.47387,10.3649 3.11344,9.28346 3.81966,8.2443 4.58974,7.25152 5.42063,6.30906 6.30906,5.42063 7.25152,4.58974 8.24429,3.81966 9.28346,3.11344 10.3649,2.47387 11.4844,1.90346 12.6375,1.40447 13.8197,0.97887 15.0262,0.628337 16.2524,0.354255 17.4933,0.157706 18.7442,0.0394654 " style="fill:green;"/>
<polygon points = "60,0 61.2558,0.0394654 62.5067,0.157706 63.7476,0.354255 64.9738,0.628337 66.1803,0.97887 67.3625,1.40447 68.5156,1.90346 69.6351,2.47387 70.7165,3.11344 71.7557,3.81966 72.7485,4.58974 73.6909,5.42063 74.5794,6.30906 75.4103,7.25152 76.1803,8.24429 76.8866,9.28346 77.5261,10.3649 78.0965,11.4844 78.5955,12.6375 79.0211,13.8197 79.3717,15.0262 79.6457,16.2524 79.8423,17.4933 79.9605,18.7442 80,20 79.9605,21.2558 79.8423,22.5067 79.6457,23.7476 79.3717,24.9738 79.0211,26.1803 78.5955,27.3625 78.0965,28.5156 77.5261,29.6351 76.8866,30.7165 76.1803,31.7557 75.4103,32.7485 74.5794,33.6909 73.6909,34.5794 72.7485,35.4103 71.7557,36.1803 70.7165,36.8866 69.6351,37.5261 68.5156,38.0965 67.3625,38.5955 66.1803,39.0211 64.9738,39.3717 63.7476,39.6457 62.5067,39.8423 61.2558,39.9605 60,40 58.7442,39.9605 57.4933,39.8423 56.2524,39.6457 55.0262,39.3717 53.8197,39.0211 52.6375,38.5955 51.4844,38.0965 50.3649,37.5261 49.2835,36.8866 48.2443,36.1803 47.2515,35.4103 46.3091,34.5794 45.4206,33.6909 44.5897,32.7485 43.8197,31.7557 43.1134,30.7165 42.4739,29.6351 41.9035,28.5156 41.4045,27.3625 40.9789,26.1803 40.6283,24.9738 40.3543,23.7476 40.1577,22.5067 40.0395,21.2558 40,20 40.0395,18.7442 40.1577,17.4933 40.3543,16.2524 40.6283,15.0262 40.9789,13.8197 41.4045,12.6375 41.9035,11.4844 42.4739,10.3649 43.1134,9.28346 43.8197,8.2443 44.5897,7.25152 45.4206,6.30906 46.3091,5.42063 47.2515,4.58974 48.2443,3.81966 49.2835,3.11344 50.3649,2.47387 51.4844,1.90346 52.6375,1.40447 53.8197,0.97887 55.0262,0.628337 56.2524,0.354255 57.4933,0.157706 58.7442,0.0394654 " style="fill:green;"/>
<polygon points = "100,0 101.256,0.0394654 102.507,0.157706 103.748,0.354255 104.974,0.628337 106.18,0.97887 107.362,1.40447 108.516,1.90346 109.635,2.47387 110.717,3.11344 111.756,3.81966 112.748,4.58974 113.691,5.42063 114.579,6.30906 115.41,7.25152 116.18,8.24429 116.887,9.28346 117.526,10.3649 118.097,11.4844 118.596,12.6375 119.021,13.8197 119.372,15.0262 119.646,16.2524 119.842,17.4933 119.961,18.7442 120,20 119.961,21.2558 119.842,22.5067 119.646,23.7476 119.372,24.9738 119.021,26.1803 118.596,27.3625 118.097,28.5156 117.526,29.6351 116.887,30.7165 116.18,31.7557 115.41,32.7485 114.579,33.6909 113.691,34.5794 112.748,35.4103 111.756,36.1803 110.717,36.8866 109.635,37.5261 108.516,38.0965 107.362,38.5955 106.18,39.0211 104.974,39.3717 103.748,39.6457 102.507,39.8423 101.256,39.9605 100,40 98.7442,39.9605 97.4933,39.8423 96.2524,39.6457 95.0262,39.3717 93.8197,39.0211 92.6375,38.5955 91.4844,38.0965 90.3649,37.5261 89.2835,36.8866 88.2443,36.1803 87.2515,35.4103 86.3091,34.5794 85.4206,33.6909 84.5897,32.7485 83.8197,31.7557 83.1134,30.7165 82.4739,29.6351 81.9035,28.5156 81.4045,27.3625 80.9789,26.1803 80.6283,24.9738 80.3543,23.7476 80.1577,22.5067 80.0395,21.2558 80,20 80.0395,18.7442 80.1577,17.4933 80.3543,16.2524 80.6283,15.0262 80.9789,13.8197 81.4045,12.6375 81.9035,11.4844 82.4739,10.3649 83.1134,9.28346 83.8197,8.2443 84.5897,7.25152 85.4206,6.30906 86.3091,5.42063 87.2515,4.58974 88.2443,3.81966 89.2835,3.11344 90.3649,2.47387 91.4844,1.90346 92.6375,1.40447 93.8197,0.97887 95.0262,0.628337 96.2524,0.354255 97.4933,0.157706 98.7442,0.0394654 " style="fill:green;"/>
<polygon points = "140,0 141.256,0.0394654 142.507,0.157706 143.748,0.354255 144.974,0.628337 146.18,0.97887 147.362,1.40447 148.516,1.90346 149.635,2.47387 150.717,3.11344 151.756,3.81966 152.748,4.58974 153.691,5.42063 154.579,6.30906 155.41,7.25152 156.18,8.24429 156.887,9.28346 157.526,10.3649 158.097,11.4844 158.596,12.6375 159.021,13.8197 159.372,15.0262 159.646,16.2524 159.842,17.4933 159.961,18.7442 160,20 159.961,21.2558 159.842,22.5067 159.646,23.7476 159.372,24.9738 159.021,26.1803 158.596,27.3625 158.097,28.5156 157.526,29.6351 156.887,30.7165 156.18,31.7557 155.41,32.7485 154.579,33.6909 153.691,34.5794 152.748,35.4103 151.756,36.1803 150.717,36.8866 149.635,37.5261 148.516,38.0965 147.362,38.5955 146.18,39.0211 144.974,39.3717 143.748,39.6457 142.507,39.8423 141.256,39.9605 140,40 138.744,39.9605 137.493,39.8423 136.252,39.6457 135.026,39.3717 133.82,39.0211 132.638,38.5955 131.484,38.0965 130.365,37.5261 129.283,36.8866 128.244,36.1803 127.252,35.4103 126.309,34.5794 125.421,33.6909 124.59,32.7485 123.82,31.7557 123.113,30.7165 122.474,29.6351 121.903,28.5156 121.404,27.3625 120.979,26.1803 120.628,24.9738 120.354,23.7476 120.158,22.5067 120.039,21.2558 120,20 120.039,18.7442 120.158,17.4933 120.354,16.2524 120.628,15.0262 120.979,13.8197 121.404,12.6375 121.903,11.4844 122.474,10.3649 123.113,9.28346 123.82,8.2443 124.59,7.25152 125.421,6.30906 126.309,5.42063 127.252,4.58974 128.244,3.81966 129.283,3.11344 130.365,2.47387 131.484,1.90346 132.638,1.40447 133.82,0.97887 135.026,0.628337 136.252,0.354255 137.493,0.157706 138.744,0.0394654 " style="fill:green;"/>
<polygon points = "180,0 181.256,0.0394654 182.507,0.157706 183.748,0.354255 184.974,0.628337 186.18,0.97887 187.362,1.40447 188.516,1.90346 189.635,2.47387 190.717,3.11344 191.756,3.81966 192.748,4.58974 193.691,5.42063 194.579,6.30906 195.41,7.25152 196.18,8.24429 196.887,9.28346 197.526,10.3649 198.097,11.4844 198.596,12.6375 199.021,13.8197 199.372,15.0262 199.646,16.2524 199.842,17.4933 199.961,18.7442 200,20 199.961,21.2558 199.842,22.5067 199.646,23.7476 199.372,24.9738 199.021,26.1803 198.596,27.3625 198.097,28.5156 197.526,29.6351 196.887,30.7165 196.18,31.7557 195.41,32.7485 194.579,33.6909 193.691,34.5794 192.748,35.4103 191.756,36.1803 190.717,36.8866 189.635,37.5261 188.516,38.0965 187.362,38.5955 186.18,39.0211 184.974,39.3717 183.748,39.6457 182.507,39.8423 181.256,39.9605 180,40 178.744,39.9605 177.493,39.8423 176.252,39.6457 175.026,39.3717 173.82,39.0211 172.638,38.5955 171.484,38.0965 170.365,37.5261 169.283,36.8866 168.244,36.1803 167.252,35.4103 166.309,34.5794 165.421,33.6909 164.59,32.7485 163.82,31.7557 163.113,30.7165 162.474,29.6351 161.903,28.5156 161.404,27.3625 160.979,26.1803 160.628,24.9738 160.354,23.7476 160.158,22.5067 160.039,21.2558 160,20 160.039,18.7442 160.158,17.4933 160.354,16.2524 160.628,15.0262 160.979,13.8197 161.404,12.6375 161.903,11.4844 162.474,10.3649 163.113,9.28346 163.82,8.2443 164.59,7.25152 165.421,6.30906 166.309,5.42063 167.252,4.58974 168.244,3.81966 169.283,3.11344 170.365,2.47387 171.484,1.90346 172.638,1.40447 173.82,0.97887 175.026,0.628337 176.252,0.354255 177.493,0.157706 178.744,0.0394654 " style="fill:green;"/>
<polygon points = "220,0 221.256,0.0394654 222.507,0.157706 223.748,0.354255 224.974,0.628337 226.18,0.97887 227.362,1.40447 228.516,1.90346 229.635,2.47387 230.717,3.11344 231.756,3.81966 232.748,4.58974 233.691,5.42063 234.579,6.30906 235.41,7.25152 236.18,8.24429 236.887,9.28346 237.526,10.3649 238.097,11.4844 238.596,12.6375 239.021,13.8197 239.372,15.0262 239.646,16.2524 239.842,17.4933 239.961,18.7442 240,20 239.961,21.2558 239.842,22.5067 239.646,23.7476 239.372,24.9738 239.021,26.1803 238.596,27.3625 238.097,28.5156 237.526,29.6351 236.887,30.7165 236.18,31.7557 235.41,32.7485 234.579,33.6909 233.691,34.5794 232.748,35.4103 231.756,36.1803 230.717,36.8866 229.635,37.5261 228.516,38.0965 227.362,38.5955 226.18,39.0211 224.974,39.3717 223.748,39.6457 222.507,39.8423 221.256,39.9605 220,40 218.744,39.9605 217.493,39.8423 216.252,39.6457 215.026,39.3717 213.82,39.0211 212.638,38.5955 211.484,38.0965 210.365,37.5261 209.283,36.8866 208.244,36.1803 207.252,35.4103 206.309,34.5794 205.421,33.6909 204.59,32.7485 203.82,31.7557 203.113,30.7165 202.474,29.6351 201.903,28.5156 201.404,27.3625 200.979,26.1803 200.628,24.9738 200.354,23.7476 200.158,22.5067 200.039,21.2558 200,20 200.039,18.7442 200.158,17.4933 200.354,16.2524 200.628,15.0262 200.979,13.8197 201.404,12.6375 201.903,11.4844 202.474,10.3649 203.113,9.28346 203.82,8.2443 204.59,7.25152 205.421,6.30906 206.309,5.42063 207.252,4.58974 208.244,3.81966 209.283,3.11344 210.365,2.47387 211.484,1.90346 212.638,1.40447 213.82,0.97887 215.026,0.628337 216.252,0.354255 217.493,0.157706 218.744,0.0394654 " style="fill:green;"/>
<polygon points = "260,0 261.256,0.0394654 262.507,0.157706 263.748,0.354255 264.974,0.628337 266.18,0.97887 267.362,1.40447 268.516,1.90346 269.635,2.47387 270.717,3.11344 271.756,3.81966 272.748,4.58974 273.691,5.42063 274.579,6.30906 275.41,7.25152 276.18,8.24429 276.887,9.28346 277.526,10.3649 278.097,11.4844 278.596,12.6375 279.021,13.8197 279.372,15.0262 279.646,16.2524 279.842,17.4933 279.961,18.7442 280,20 279.961,21.2558 279.842,22.5067 279.646,23.7476 279.372,24.9738 279.021,26.1803 278.596,27.3625 278.097,28.5156 277.526,29.6351 276.887,30.7165 276.18,31.7557 275.41,32.7485 274.579,33.6909 273.691,34.5794 272.748,35.4103 271.756,36.1803 270.717,36.8866 269.635,37.5261 268.516,38.0965 267.362,38.5955 266.18,39.0211 264.974,39.3717 263.748,39.6457 262.507,39.8423 261.256,39.9605 260,40 258.744,39.9605 257.493,39.8423 256.252,39.6457 255.026,39.3717 253.82,39.0211 252.638,38.5955 251.484,38.0965 250.365,37.5261 249.283,36.8866 248.244,36.1803 247.252,35.4103 246.309,34.5794 245.421,33.6909 244.59,32.7485 243.82,31.7557 243.113,30.7165 242.474,29.6351 241.903,28.5156 241.404,27.3625 240.979,26.1803 240.628,24.9738 240.354,23.7476 240.158,22.5067 240.039,21.2558 240,20 240.039,18.7442 240.158,17.4933 240.354,16.2524 240.628,15.0262 240.979,13.8197 241.404,12.6375 241.903,11.4844 242.474,10.3649 243.113,9.28346 243.82,8.2443 244.59,7.25152 245.421,6.30906 246.309,5.42063 247.252,4.58974 248.244,3.81966 249.283,3.11344 250.365,2.47387 251.484,1.90346 252.638,1.40447 253.82,0.97887 255.026,0.628337 256.252,0.354255 257.493,0.157706 258.744,0.0394654 " style="fill:green;"/>
<polygon points = "20,40 21.2558,40.0395 22.5067,40.1577 23.7476,40.3543 24.9738,40.6283 26.1803,40.9789 27.3625,41.4045 28.5156,41.9035 29.6351,42.4739 30.7165,43.1134 31.7557,43.8197 32.7485,44.5897 33.6909,45.4206 34.5794,46.3091 35.4103,47.2515 36.1803,48.2443 36.8866,49.2835 37.5261,50.3649 38.0965,51.4844 38.5955,52.6375 39.0211,53.8197 39.3717,55.0262 39.6457,56.2524 39.8423,57.4933 39.9605,58.7442 40,60 39.9605,61.2558 39.8423,62.5067 39.6457,63.7476 39.3717,64.9738 39.0211,66.1803 38.5955,67.3625 38.0965,68.5156 37.5261,69.6351 36.8866,70.7165 36.1803,71.7557 35.4103,72.7485 34.5794,73.6909 33.6909,74.5794 32.7485,75.4103 31.7557,76.1803 30.7165,76.8866 29.6351,77.5261 28.5156,78.0965 27.3625,78.5955 26.1803,79.0211 24.9738,79.3717 23.7476,79.6457 22.5067,79.8423 21.2558,79.9605 20,80 18.7442,79.9605 17.4933,79.8423 16.2524,79.6457 15.0262,79.3717 13.8197,79.0211 12.6375,78.5955 11.4844,78.0965 10.3649,77.5261 9.28346,76.8866 8.2443,76.1803 7.25152,75.4103 6.30906,74.5794 5.42063,73.6909 4.58974,72.7485 3.81966,71.7557 3.11344,70.7165 2.47387,69.6351 1.90346,68.5156 1.40447,67.3625 0.97887,66.1803 0.628337,64.9738 0.354255,63.7476 0.157706,62.5067 0.0394654,61.2558 0,60 0.0394654,58.7442 0.157706,57.4933 0.354255,56.2524 0.628337,55.0262 0.97887,53.8197 1.40447,52.6375 1.90346,51.4844 2.47387,50.3649 3.11344,49.2835 3.81966,48.2443 4.58974,47.2515 5.42063,46.3091 6.30906,45.4206 7.25152,44.5897 8.24429,43.8197 9.28346,43.1134 10.3649,42.4739 11.4844,41.9035 12.6375,41.4045 13.8197,40.9789 15.0262,40.6283 16.2524,40.3543 17.4933,40.1577 18.7442,40.0395 " style="fill:green;"/>
<polygon points = "60,40 61.2558,40.0395 62.5067,40.1577 63.7476,40.3543 64.9738,40.6283 66.1803,40.9789 67.3625,41.4045 68.5156,41.9035 69.6351,42.4739 70.7165,43.1134 71.7557,43.8197 72.7485,44.5897 73.6909,45.4206 74.5794,46.3091 75.4103,47.2515 76.1803,48.2443 76.8866,49.2835 77.5261,50.3649 78.0965,51.4844 78.5955,52.6375 79.0211,53.8197 79.3717,55.0262 79.6457,56.2524 79.8423,57.4933 79.9605,58.7442 80,60 79.9605,61.2558 79.8423,62.5067 79.6457,63.7476 79.3717,64.9738 79.0211,66.1803 78.5955,67.3625 78.0965,68.5156 77.5261,69.6351 76.8866,70.7165 76.1803,71.7557 75.4103,72.7485 74.5794,73.6909 73.6909,74.5794 72.7485,75.4103 71.7557,76.1803 70.7165,76.8866 69.6351,77.5261 68.5156,78.0965 67.3625,78.5955 66.1803,79.0211 64.9738,79.3717 63.7476,79.6457 62.5067,79.8423 61.2558,79.9605 60,80 58.7442,79.9605 57.4933,79.8423 56.2524,79.6457 55.0262,79.3717 53.8197,79.0211 52.6375,78.5955 51.4844,78.0965 50.3649,77.5261 49.2835,76.8866 48.2443,76.1803 47.2515,75.4103 46.3091,74.5794 45.4206,73.6909 44.5897,72.7485 43.8197,71.7557 43.1134,70.7165 42.4739,69.6351 41.9035,68.5156 41.4045,67.3625 40.9789,66.1803 40.6283,64.9738 40.3543,63.7476 40.1577,62.5067 40.0395,61.2558 40,60 40.0395,58.7442 40.1577,57.4933 40.3543,56.2524 40.6283,55.0262 40.9789,53.8197 41.4045,52.6375 41.9035,51.4844 42.4739,50.3649 43.1134,49.2835 43.8197,48.2443 44.5897,47.2515 45.4206,46.3091 46.3091,45.4206 47.2515,44.5897 48.2443,43.8197 49.2835,43.1134 50.3649,42.4739 51.4844,41.9035 52.6375,41.4045 53.8197,40.9789 55.0262,40.6283 56.2524,40.3543 57.4933,40.1577 58.7442,40.0395 " style="fill:green;"/>
<polygon points = "100,40 101.256,40.0395 102.507,40.1577 103.748,40.3543 104.974,40.6283 106.18,40.9789 107.362,41.4045 108.516,41.9035 109.635,42.4739 110.717,43.1134 111.756,43.8197 112.748,44.5897 113.691,45.4206 114.579,46.3091 115.41,47.2515 116.18,48.2443 116.887,49.2835 117.526,50.3649 118.097,51.4844 118.596,52.6375 119.021,53.8197 119.372,55.0262 119.646,56.2524 119.842,57.4933 119.961,58.7442 120,60 119.961,61.2558 119.842,62.5067 119.646,63.7476 119.372,64.9738 119.021,66.1803 118.596,67.3625 118.097,68.5156 117.526,69.6351 116.887,70.7165 116.18,71.7557 115.41,72.7485 114.579,73.6909 113.691,74.5794 112.748,75.4103 111.756,76.1803 110.717,76.8866 109.635,77.5261 108.516,78.0965 107.362,78.5955 106.18,79.0211 104.974,79.3717 103.748,79.6457 102.507,79.8423 101.256,79.9605 100,80 98.7442,79.9605 97.4933,79.8423 96.2524,79.6457 95.0262,79.3717 93.8197,79.0211 92.6375,78.5955 91.4844,78.0965 90.3649,77.5261 89.2835,76.8866 88.2443,76.1803 87.2515,75.4103 86.3091,74.5794 85.4206,73.6909 84.5897,72.7485 83.8197,71.7557 83.1134,70.7165 82.4739,69.6351 81.9035,68.5156 81.4045,67.3625 80.9789,66.1803 80.6283,64.9738 80.3543,63.7476 80.1577,62.5067 80.0395,61.2558 80,60 80.0395,58.7442 80.1577,57.4933 80.3543,56.2524 80.6283,55.0262 80.9789,53.8197 81.4045,52.6375 81.9035,51.4844 82.4739,50.3649 83.1134,49.2835 83.8197,48.2443 84.5897,47.2515 85.4206,46.3091 86.3091,45.4206 87.2515,44.5897 88.2443,43.8197 89.2835,43.1134 90.3649,42.4739 91.4844,41.9035 92.6375,41.4045 93.8197,40.9789 95.0262,40.6283 96.2524,40.3543 97.4933,40.1577 98.7442,40.0395 " style="fill:green;"/>
<polygon points = "140,40 141.256,40.0395 142.507,40.1577 143.748,40.3543 144.974,40.6283 146.18,40.9789 147.362,41.4045 148.516,41.9035 149.635,42.4739 150.717,43.1134 151.756,43.8197 152.748,44.5897 153.691,45.4206 154.579,46.3091 155.41,47.2515 156.18,48.2443 156.887,49.2835 157.526,50.3649 158.097,51.4844 158.596,52.6375 159.021,53.8197 159.372,55.0262 159.646,56.2524 159.842,57.4933 159.961,58.7442 160,60 159.961,61.2558 159.842,62.5067 159.646,63.7476 159.372,64.9738 159.021,66.1803 158.596,67.3625 158.097,68.5156 157.526,69.6351 156.887,70.7165 156.18,71.7557 155.41,72.7485 154.579,73.6909 153.691,74.5794 152.748,75.4103 151.756,76.1803 150.717,76.8866 149.635,77.5261 148.516,78.0965 147.362,78.5955 146.18,79.0211 144.974,79.3717 143.748,79.6457 142.507,79.8423 141.256,79.9605 140,80 138.744,79.9605 137.493,79.8423 136.252,79.6457 135.026,79.3717 133.82,79.0211 132.638,78.5955 131.484,78.0965 130.365,77.5261 129.283,76.8866 128.244,76.1803 127.252,75.4103 126.309,74.5794 125.421,73.6909 124.59,72.7485 123.82,71.7557 123.113,70.7165 122.474,69.6351 121.903,68.5156 121.404,67.3625 120.979,66.1803 120.628,64.9738 120.354,63.7476 120.158,62.5067 120.039,61.2558 120,60 120.039,58.7442 120.158,57.4933 120.354,56.2524 120.628,55.0262 120.979,53.8197 121.404,52.6375 121.903,51.4844 122.474,50.3649 123.113,49.2835 123.82,48.2443 124.59,47.2515 125.421,46.3091 126.309,45.4206 127.252,44.5897 128.244,43.8197 129.283,43.1134 130.365,42.4739 131.484,41.9035 132.638,41.4045 133.82,40.9789 135.026,40.6283 136.252,40.3543 137.493,40.1577 138.744,40.0395 " style="fill:green;"/>
<polygon points = "180,40 181.256,40.0395 182.507,40.1577 183.748,40.3543 184.974,40.6283 186.18,40.9789 187.362,41.4045 188.516,41.9035 189.635,42.4739 190.717,43.1134 191.756,43.8197 192.748,44.5897 193.691,45.4206 194.579,46.3091 195.41,47.2515 196.18,48.2443 196.887,49.2835 197.526,50.3649 198.097,51.4844 198.596,52.6375 199.021,53.8197 199.372,55.0262 199.646,56.2524 199.842,57.4933 199.961,58.7442 200,60 199.961,61.2558 199.842,62.5067 199.646,63.7476 199.372,64.9738 199.021,66.1803 198.596,67.3625 198.097,68.5156 197.526,69.6351 196.887,70.7165 196.18,71.7557 195.41,72.7485 194.579,73.6909 193.691,74.5794 192.748,75.4103 191.756,76.1803 190.717,76.8866 189.635,77.5261 188.516,78.0965 187.362,78.5955 186.18,79.0211 184.974,79.3717 183.748,79.6457 182.507,79.8423 181.256,79.9605 180,80 178.744,79.9605 177.493,79.8423 176.252,79.6457 175.026,79.3717 173.82,79.0211 172.638,78.5955 171.484,78.0965 170.365,77.5261 169.283,76.8866 168.244,76.1803 167.252,75.4103 166.309,74.5794 165.421,73.6909 164.59,72.7485 163.82,71.7557 163.113,70.7165 162.474,69.6351 161.903,68.5156 161.404,67.3625 160.979,66.1803 160.628,64.9738 160.354,63.7476 160.158,62.5067 160.039,61.2558 160,60 160.039,58.7442 160.158,57.4933 160.354,56.2524 160.628,55.0262 160.979,53.8197 161.404,52.6375 161.903,51.4844 162.474,50.3649 163.113,49.2835 163.82,48.2443 164.59,47.2515 165.421,46.3091 166.309,45.4206 167.252,44.5897 168.244,43.8197 169.283,43.1134 170.365,42.4739 171.484,41.9035 172.638,41.4045 173.82,40.9789 175.026,40.6283 176.252,40.3543 177.493,40.1577 178.744,40.0395 " style="fill:green;"/>
<polygon points = "220,40 221.256,40.0395 222.507,40.1577 223.748,40.3543 224.974,40.6283 226.18,40.9789 227.362,41.4045 228.516,41.9035 229.635,42.4739 230.717,43.1134 231.756,43.8197 232.748,44.5897 233.691,45.4206 234.579,46.3091 235.41,47.2515 236.18,48.2443 236.887,49.2835 237.526,50.3649 238.097,51.4844 238.596,52.6375 239.021,53.8197 239.372,55.0262 239.646,56.2524 239.842,57.4933 239.961,58.7442 240,60 239.961,61.2558 239.842,62.5067 239.646,63.7476 239.372,64.9738 239.021,66.1803 238.596,67.3625 238.097,68.5156 237.526,69.6351 236.887,70.7165 236.18,71.7557 235.41,72.7485 234.579,73.6909 233.691,74.5794 232.748,75.4103 231.756,76.1803 230.717,76.8866 229.635,77.5261 228.516,78.0965 227.362,78.5955 226.18,79.0211 224.974,79.3717 223.748,79.6457 222.507,79.8423 221.256,79.9605 220,80 218.744,79.9605 217.493,79.8423 216.252,79.6457 215.026,79.3717 213.82,79.0211 212.638,78.5955 211.484,78.0965 210.365,77.5261 209.283,76.8866 208.244,76.1803 207.252,75.4103 206.309,74.5794 205.421,73.6909 204.59,72.7485 203.82,71.7557 203.113,70.7165 202.474,69.6351 201.903,68.5156 201.404,67.3625 200.979,66.1803 200.628,64.9738 200.354,63.7476 200.158,62.5067 200.039,61.2558 200,60 200.039,58.7442 200.158,57.4933 200.354,56.2524 200.628,55.0262 200.979,53.8197 201.404,52.6375 201.903,51.4844 202.474,50.3649 203.113,49.2835 203.82,48.2443 204.59,47.2515 205.421,46.3091 206.309,45.4206 207.252,44.5897 208.244,43.8197 209.283,43.1134 210.365,42.4739 211.484,41.9035 212.638,41.4045 213.82,40.9789 215.026,40.6283 216.252,40.3543 217.493,40.1577 218.744,40.0395 " style="fill:green;"/>
<polygon points = "260,40 261.256,40.0395 262.507,40.1577 263.748,40.3543 264.974,40.6283 266.18,40.9789 267.362,41.4045 268.516,41.9035 269.635,42.4739 270.717,43.1134 271.756,43.8197 272.748,44.5897 273.691,45.4206 274.579,46.3091 275.41,47.2515 276.18,48.2443 276.887,49.2835 277.526,50.3649 278.097,51.4844 278.596,52.6375 279.021,53.8197 279.372,55.0262 279.646,56.2524 279.842,57.4933 279.961,58.7442 280,60 279.961,61.2558 279.842,62.5067 279.646,63.7476 279.372,64.9738 279.021,66.1803 278.596,67.3625 278.097,68.5156 277.526,69.6351 276.887,70.7165 276.18,71.7557 275.41,72.7485 274.579,73.6909 273.691,74.5794 272.748,75.4103 271.756,76.1803 270.717,76.8866 269.635,77.5261 268.516,78.0965 267.362,78.5955 266.18,79.0211 264.974,79.3717 263.748,79.6457 262.507,79.8423 261.256,79.9605 260,80 258.744,79.9605 257.493,79.8423 256.252,79.6457 255.026,79.3717 253.82,79.0211 252.638,78.5955 251.484,78.0965 250.365,77.5261 249.283,76.8866 248.244,76.1803 247.252,75.4103 246.309,74.5794 245.421,73.6909 244.59,72.7485 243.82,71.7557 243.113,70.7165 242.474,69.6351 241.903,68.5156 241.404,67.3625 240.979,66.1803 240.628,64.9738 240.354,63.7476 240.158,62.5067 240.039,61.2558 240,60 240.039,58.7442 240.158,57.4933 240.354,56.2524 240.628,55.0262 240.979,53.8197 241.404,52.6375 241.903,51.4844 242.474,50.3649 243.113,49.2835 243.82,48.2443 244.59,47.2515 245.421,46.3091 246.309,45.4206 247.252,44.5897 248.244,43.8197 249.283,43.1134 250.365,42.4739 251.484,41.9035 252.638,41.4045 253.82,40.9789 255.026,40.6283 256.252,40.3543 257.493,40.1577 258.744,40.0395 " style="fill:green;"/>
</svg>