<svg version="1.1"
	baseProfile="full"
	width="100%" height="100%"
	xmlns="http://www.w3.org/2000/svg">
	<circle cx="200" cy="200" r="200" fill="red" />
	<rect x="80" y="40" width="80" height="40" style="fill:green;stroke-width:1" />

	<rect x="160" y="40" width="80" height="40" style="fill:green;stroke-width:1" />

	<rect x="240" y="40" width="80" height="40" style="fill:green;stroke-width:1" />

	<rect x="40" y="80" width="80" height="40" style="fill:green;stroke-width:1" />

	<rect x="120" y="80" width="80" height="40" style="fill:green;stroke-width:1" />

	<rect x="200" y="80" width="80" height="40" style="fill:green;stroke-width:1" />

	<rect x="280" y="80" width="80" height="40" style="fill:green;stroke-width:1" />

	<rect x="17" y="120" width="80" height="40" style="fill:green;stroke-width:1" />

	<rect x="97" y="120" width="80" height="40" style="fill:green;stroke-width:1" />

	<rect x="177" y="120" width="80" height="40" style="fill:green;stroke-width:1" />

	<rect x="257" y="120" width="80" height="40" style="fill:green;stroke-width:1" />

	<rect x="5" y="160" width="80" height="40" style="fill:green;stroke-width:1" />

	<rect x="85" y="160" width="80" height="40" style="fill:green;stroke-width:1" />

	<rect x="165" y="160" width="80" height="40" style="fill:green;stroke-width:1" />

	<rect x="245" y="160" width="80" height="40" style="fill:green;stroke-width:1" />

	<rect x="5" y="200" width="80" height="40" style="fill:green;stroke-width:1" />

	<rect x="85" y="200" width="80" height="40" style="fill:green;stroke-width:1" />

	<rect x="165" y="200" width="80" height="40" style="fill:green;stroke-width:1" />

	<rect x="245" y="200" width="80" height="40" style="fill:green;stroke-width:1" />

	<rect x="17" y="240" width="80" height="40" style="fill:green;stroke-width:1" />

	<rect x="97" y="240" width="80" height="40" style="fill:green;stroke-width:1" />

	<rect x="177" y="240" width="80" height="40" style="fill:green;stroke-width:1" />

	<rect x="257" y="240" width="80" height="40" style="fill:green;stroke-width:1" />

	<rect x="40" y="280" width="80" height="40" style="fill:green;stroke-width:1" />

	<rect x="120" y="280" width="80" height="40" style="fill:green;stroke-width:1" />

	<rect x="200" y="280" width="80" height="40" style="fill:green;stroke-width:1" />

	<rect x="280" y="280" width="80" height="40" style="fill:green;stroke-width:1" />

	<rect x="80" y="320" width="80" height="40" style="fill:green;stroke-width:1" />

	<rect x="160" y="320" width="80" height="40" style="fill:green;stroke-width:1" />

	<rect x="240" y="320" width="80" height="40" style="fill:green;stroke-width:1" />

</svg>