<svg version="1.1"
	baseProfile="full"
	width="100%" height="100%"
	xmlns="http://www.w3.org/2000/svg">
	<circle cx="200" cy="200" r="200" fill="red" />
	<circle cx="200" cy="20" r="20" fill="green" />
	<circle cx="87" cy="60" r="20" fill="green" />
	<circle cx="127" cy="60" r="20" fill="green" />
	<circle cx="167" cy="60" r="20" fill="green" />
	<circle cx="207" cy="60" r="20" fill="green" />
	<circle cx="247" cy="60" r="20" fill="green" />
	<circle cx="287" cy="60" r="20" fill="green" />
	<circle cx="51" cy="100" r="20" fill="green" />
	<circle cx="91" cy="100" r="20" fill="green" />
	<circle cx="131" cy="100" r="20" fill="green" />
	<circle cx="171" cy="100" r="20" fill="green" />
	<circle cx="211" cy="100" r="20" fill="green" />
	<circle cx="251" cy="100" r="20" fill="green" />
	<circle cx="291" cy="100" r="20" fill="green" />
	<circle cx="331" cy="100" r="20" fill="green" />
	<circle cx="31" cy="140" r="20" fill="green" />
	<circle cx="71" cy="140" r="20" fill="green" />
	<circle cx="111" cy="140" r="20" fill="green" />
	<circle cx="151" cy="140" r="20" fill="green" />
	<circle cx="191" cy="140" r="20" fill="green" />
	<circle cx="231" cy="140" r="20" fill="green" />
	<circle cx="271" cy="140" r="20" fill="green" />
	<circle cx="311" cy="140" r="20" fill="green" />
	<circle cx="351" cy="140" r="20" fill="green" />
	<circle cx="22" cy="180" r="20" fill="green" />
	<circle cx="62" cy="180" r="20" fill="green" />
	<circle cx="102" cy="180" r="20" fill="green" />
	<circle cx="142" cy="180" r="20" fill="green" />
	<circle cx="182" cy="180" r="20" fill="green" />
	<circle cx="222" cy="180" r="20" fill="green" />
	<circle cx="262" cy="180" r="20" fill="green" />
	<circle cx="302" cy="180" r="20" fill="green" />
	<circle cx="342" cy="180" r="20" fill="green" />
	<circle cx="22" cy="220" r="20" fill="green" />
	<circle cx="62" cy="220" r="20" fill="green" />
	<circle cx="102" cy="220" r="20" fill="green" />
	<circle cx="142" cy="220" r="20" fill="green" />
	<circle cx="182" cy="220" r="20" fill="green" />
	<circle cx="222" cy="220" r="20" fill="green" />
	<circle cx="262" cy="220" r="20" fill="green" />
	<circle cx="302" cy="220" r="20" fill="green" />
	<circle cx="342" cy="220" r="20" fill="green" />
	<circle cx="31" cy="260" r="20" fill="green" />
	<circle cx="71" cy="260" r="20" fill="green" />
	<circle cx="111" cy="260" r="20" fill="green" />
	<circle cx="151" cy="260" r="20" fill="green" />
	<circle cx="191" cy="260" r="20" fill="green" />
	<circle cx="231" cy="260" r="20" fill="green" />
	<circle cx="271" cy="260" r="20" fill="green" />
	<circle cx="311" cy="260" r="20" fill="green" />
	<circle cx="351" cy="260" r="20" fill="green" />
	<circle cx="51" cy="300" r="20" fill="green" />
	<circle cx="91" cy="300" r="20" fill="green" />
	<circle cx="131" cy="300" r="20" fill="green" />
	<circle cx="171" cy="300" r="20" fill="green" />
	<circle cx="211" cy="300" r="20" fill="green" />
	<circle cx="251" cy="300" r="20" fill="green" />
	<circle cx="291" cy="300" r="20" fill="green" />
	<circle cx="331" cy="300" r="20" fill="green" />
	<circle cx="87" cy="340" r="20" fill="green" />
	<circle cx="127" cy="340" r="20" fill="green" />
	<circle cx="167" cy="340" r="20" fill="green" />
	<circle cx="207" cy="340" r="20" fill="green" />
	<circle cx="247" cy="340" r="20" fill="green" />
	<circle cx="287" cy="340" r="20" fill="green" />
	<circle cx="200" cy="380" r="20" fill="green" />
</svg>