<svg version="1.1"
	baseProfile="full"
	width="100%" height="100%"
	xmlns="http://www.w3.org/2000/svg">
	<polygon points="400,0 0,692.82 800,692.82" style="fill:red" />

	<circle cx="34.641" cy="672.82" r="20" fill="green" />
	<circle cx="74.641" cy="672.82" r="20" fill="green" />
	<circle cx="114.641" cy="672.82" r="20" fill="green" />
	<circle cx="154.641" cy="672.82" r="20" fill="green" />
	<circle cx="194.641" cy="672.82" r="20" fill="green" />
	<circle cx="234.641" cy="672.82" r="20" fill="green" />
	<circle cx="274.641" cy="672.82" r="20" fill="green" />
	<circle cx="314.641" cy="672.82" r="20" fill="green" />
	<circle cx="354.641" cy="672.82" r="20" fill="green" />
	<circle cx="394.641" cy="672.82" r="20" fill="green" />
	<circle cx="434.641" cy="672.82" r="20" fill="green" />
	<circle cx="474.641" cy="672.82" r="20" fill="green" />
	<circle cx="514.641" cy="672.82" r="20" fill="green" />
	<circle cx="554.641" cy="672.82" r="20" fill="green" />
	<circle cx="594.641" cy="672.82" r="20" fill="green" />
	<circle cx="634.641" cy="672.82" r="20" fill="green" />
	<circle cx="674.641" cy="672.82" r="20" fill="green" />
	<circle cx="714.641" cy="672.82" r="20" fill="green" />
	<circle cx="754.641" cy="672.82" r="20" fill="green" />
	<circle cx="54.641" cy="638.179" r="20" fill="green" />
	<circle cx="94.641" cy="638.179" r="20" fill="green" />
	<circle cx="134.641" cy="638.179" r="20" fill="green" />
	<circle cx="174.641" cy="638.179" r="20" fill="green" />
	<circle cx="214.641" cy="638.179" r="20" fill="green" />
	<circle cx="254.641" cy="638.179" r="20" fill="green" />
	<circle cx="294.641" cy="638.179" r="20" fill="green" />
	<circle cx="334.641" cy="638.179" r="20" fill="green" />
	<circle cx="374.641" cy="638.179" r="20" fill="green" />
	<circle cx="414.641" cy="638.179" r="20" fill="green" />
	<circle cx="454.641" cy="638.179" r="20" fill="green" />
	<circle cx="494.641" cy="638.179" r="20" fill="green" />
	<circle cx="534.641" cy="638.179" r="20" fill="green" />
	<circle cx="574.641" cy="638.179" r="20" fill="green" />
	<circle cx="614.641" cy="638.179" r="20" fill="green" />
	<circle cx="654.641" cy="638.179" r="20" fill="green" />
	<circle cx="694.641" cy="638.179" r="20" fill="green" />
	<circle cx="734.641" cy="638.179" r="20" fill="green" />
	<circle cx="74.641" cy="603.538" r="20" fill="green" />
	<circle cx="114.641" cy="603.538" r="20" fill="green" />
	<circle cx="154.641" cy="603.538" r="20" fill="green" />
	<circle cx="194.641" cy="603.538" r="20" fill="green" />
	<circle cx="234.641" cy="603.538" r="20" fill="green" />
	<circle cx="274.641" cy="603.538" r="20" fill="green" />
	<circle cx="314.641" cy="603.538" r="20" fill="green" />
	<circle cx="354.641" cy="603.538" r="20" fill="green" />
	<circle cx="394.641" cy="603.538" r="20" fill="green" />
	<circle cx="434.641" cy="603.538" r="20" fill="green" />
	<circle cx="474.641" cy="603.538" r="20" fill="green" />
	<circle cx="514.641" cy="603.538" r="20" fill="green" />
	<circle cx="554.641" cy="603.538" r="20" fill="green" />
	<circle cx="594.641" cy="603.538" r="20" fill="green" />
	<circle cx="634.641" cy="603.538" r="20" fill="green" />
	<circle cx="674.641" cy="603.538" r="20" fill="green" />
	<circle cx="714.641" cy="603.538" r="20" fill="green" />
	<circle cx="94.641" cy="568.897" r="20" fill="green" />
	<circle cx="134.641" cy="568.897" r="20" fill="green" />
	<circle cx="174.641" cy="568.897" r="20" fill="green" />
	<circle cx="214.641" cy="568.897" r="20" fill="green" />
	<circle cx="254.641" cy="568.897" r="20" fill="green" />
	<circle cx="294.641" cy="568.897" r="20" fill="green" />
	<circle cx="334.641" cy="568.897" r="20" fill="green" />
	<circle cx="374.641" cy="568.897" r="20" fill="green" />
	<circle cx="414.641" cy="568.897" r="20" fill="green" />
	<circle cx="454.641" cy="568.897" r="20" fill="green" />
	<circle cx="494.641" cy="568.897" r="20" fill="green" />
	<circle cx="534.641" cy="568.897" r="20" fill="green" />
	<circle cx="574.641" cy="568.897" r="20" fill="green" />
	<circle cx="614.641" cy="568.897" r="20" fill="green" />
	<circle cx="654.641" cy="568.897" r="20" fill="green" />
	<circle cx="694.641" cy="568.897" r="20" fill="green" />
	<circle cx="114.641" cy="534.256" r="20" fill="green" />
	<circle cx="154.641" cy="534.256" r="20" fill="green" />
	<circle cx="194.641" cy="534.256" r="20" fill="green" />
	<circle cx="234.641" cy="534.256" r="20" fill="green" />
	<circle cx="274.641" cy="534.256" r="20" fill="green" />
	<circle cx="314.641" cy="534.256" r="20" fill="green" />
	<circle cx="354.641" cy="534.256" r="20" fill="green" />
	<circle cx="394.641" cy="534.256" r="20" fill="green" />
	<circle cx="434.641" cy="534.256" r="20" fill="green" />
	<circle cx="474.641" cy="534.256" r="20" fill="green" />
	<circle cx="514.641" cy="534.256" r="20" fill="green" />
	<circle cx="554.641" cy="534.256" r="20" fill="green" />
	<circle cx="594.641" cy="534.256" r="20" fill="green" />
	<circle cx="634.641" cy="534.256" r="20" fill="green" />
	<circle cx="674.641" cy="534.256" r="20" fill="green" />
	<circle cx="134.641" cy="499.615" r="20" fill="green" />
	<circle cx="174.641" cy="499.615" r="20" fill="green" />
	<circle cx="214.641" cy="499.615" r="20" fill="green" />
	<circle cx="254.641" cy="499.615" r="20" fill="green" />
	<circle cx="294.641" cy="499.615" r="20" fill="green" />
	<circle cx="334.641" cy="499.615" r="20" fill="green" />
	<circle cx="374.641" cy="499.615" r="20" fill="green" />
	<circle cx="414.641" cy="499.615" r="20" fill="green" />
	<circle cx="454.641" cy="499.615" r="20" fill="green" />
	<circle cx="494.641" cy="499.615" r="20" fill="green" />
	<circle cx="534.641" cy="499.615" r="20" fill="green" />
	<circle cx="574.641" cy="499.615" r="20" fill="green" />
	<circle cx="614.641" cy="499.615" r="20" fill="green" />
	<circle cx="654.641" cy="499.615" r="20" fill="green" />
	<circle cx="154.641" cy="464.974" r="20" fill="green" />
	<circle cx="194.641" cy="464.974" r="20" fill="green" />
	<circle cx="234.641" cy="464.974" r="20" fill="green" />
	<circle cx="274.641" cy="464.974" r="20" fill="green" />
	<circle cx="314.641" cy="464.974" r="20" fill="green" />
	<circle cx="354.641" cy="464.974" r="20" fill="green" />
	<circle cx="394.641" cy="464.974" r="20" fill="green" />
	<circle cx="434.641" cy="464.974" r="20" fill="green" />
	<circle cx="474.641" cy="464.974" r="20" fill="green" />
	<circle cx="514.641" cy="464.974" r="20" fill="green" />
	<circle cx="554.641" cy="464.974" r="20" fill="green" />
	<circle cx="594.641" cy="464.974" r="20" fill="green" />
	<circle cx="634.641" cy="464.974" r="20" fill="green" />
	<circle cx="174.641" cy="430.333" r="20" fill="green" />
	<circle cx="214.641" cy="430.333" r="20" fill="green" />
	<circle cx="254.641" cy="430.333" r="20" fill="green" />
	<circle cx="294.641" cy="430.333" r="20" fill="green" />
	<circle cx="334.641" cy="430.333" r="20" fill="green" />
	<circle cx="374.641" cy="430.333" r="20" fill="green" />
	<circle cx="414.641" cy="430.333" r="20" fill="green" />
	<circle cx="454.641" cy="430.333" r="20" fill="green" />
	<circle cx="494.641" cy="430.333" r="20" fill="green" />
	<circle cx="534.641" cy="430.333" r="20" fill="green" />
	<circle cx="574.641" cy="430.333" r="20" fill="green" />
	<circle cx="614.641" cy="430.333" r="20" fill="green" />
	<circle cx="194.641" cy="395.692" r="20" fill="green" />
	<circle cx="234.641" cy="395.692" r="20" fill="green" />
	<circle cx="274.641" cy="395.692" r="20" fill="green" />
	<circle cx="314.641" cy="395.692" r="20" fill="green" />
	<circle cx="354.641" cy="395.692" r="20" fill="green" />
	<circle cx="394.641" cy="395.692" r="20" fill="green" />
	<circle cx="434.641" cy="395.692" r="20" fill="green" />
	<circle cx="474.641" cy="395.692" r="20" fill="green" />
	<circle cx="514.641" cy="395.692" r="20" fill="green" />
	<circle cx="554.641" cy="395.692" r="20" fill="green" />
	<circle cx="594.641" cy="395.692" r="20" fill="green" />
	<circle cx="214.641" cy="361.051" r="20" fill="green" />
	<circle cx="254.641" cy="361.051" r="20" fill="green" />
	<circle cx="294.641" cy="361.051" r="20" fill="green" />
	<circle cx="334.641" cy="361.051" r="20" fill="green" />
	<circle cx="374.641" cy="361.051" r="20" fill="green" />
	<circle cx="414.641" cy="361.051" r="20" fill="green" />
	<circle cx="454.641" cy="361.051" r="20" fill="green" />
	<circle cx="494.641" cy="361.051" r="20" fill="green" />
	<circle cx="534.641" cy="361.051" r="20" fill="green" />
	<circle cx="574.641" cy="361.051" r="20" fill="green" />
	<circle cx="234.641" cy="326.41" r="20" fill="green" />
	<circle cx="274.641" cy="326.41" r="20" fill="green" />
	<circle cx="314.641" cy="326.41" r="20" fill="green" />
	<circle cx="354.641" cy="326.41" r="20" fill="green" />
	<circle cx="394.641" cy="326.41" r="20" fill="green" />
	<circle cx="434.641" cy="326.41" r="20" fill="green" />
	<circle cx="474.641" cy="326.41" r="20" fill="green" />
	<circle cx="514.641" cy="326.41" r="20" fill="green" />
	<circle cx="554.641" cy="326.41" r="20" fill="green" />
	<circle cx="254.641" cy="291.769" r="20" fill="green" />
	<circle cx="294.641" cy="291.769" r="20" fill="green" />
	<circle cx="334.641" cy="291.769" r="20" fill="green" />
	<circle cx="374.641" cy="291.769" r="20" fill="green" />
	<circle cx="414.641" cy="291.769" r="20" fill="green" />
	<circle cx="454.641" cy="291.769" r="20" fill="green" />
	<circle cx="494.641" cy="291.769" r="20" fill="green" />
	<circle cx="534.641" cy="291.769" r="20" fill="green" />
	<circle cx="274.641" cy="257.128" r="20" fill="green" />
	<circle cx="314.641" cy="257.128" r="20" fill="green" />
	<circle cx="354.641" cy="257.128" r="20" fill="green" />
	<circle cx="394.641" cy="257.128" r="20" fill="green" />
	<circle cx="434.641" cy="257.128" r="20" fill="green" />
	<circle cx="474.641" cy="257.128" r="20" fill="green" />
	<circle cx="514.641" cy="257.128" r="20" fill="green" />
	<circle cx="294.641" cy="222.487" r="20" fill="green" />
	<circle cx="334.641" cy="222.487" r="20" fill="green" />
	<circle cx="374.641" cy="222.487" r="20" fill="green" />
	<circle cx="414.641" cy="222.487" r="20" fill="green" />
	<circle cx="454.641" cy="222.487" r="20" fill="green" />
	<circle cx="494.641" cy="222.487" r="20" fill="green" />
	<circle cx="314.641" cy="187.846" r="20" fill="green" />
	<circle cx="354.641" cy="187.846" r="20" fill="green" />
	<circle cx="394.641" cy="187.846" r="20" fill="green" />
	<circle cx="434.641" cy="187.846" r="20" fill="green" />
	<circle cx="474.641" cy="187.846" r="20" fill="green" />
	<circle cx="334.641" cy="153.205" r="20" fill="green" />
	<circle cx="374.641" cy="153.205" r="20" fill="green" />
	<circle cx="414.641" cy="153.205" r="20" fill="green" />
	<circle cx="454.641" cy="153.205" r="20" fill="green" />
	<circle cx="354.641" cy="118.564" r="20" fill="green" />
	<circle cx="394.641" cy="118.564" r="20" fill="green" />
	<circle cx="434.641" cy="118.564" r="20" fill="green" />
	<circle cx="374.641" cy="83.923" r="20" fill="green" />
	<circle cx="414.641" cy="83.923" r="20" fill="green" />
	<circle cx="394.641" cy="49.282" r="20" fill="green" />
</svg>