<svg version="1.1"
	baseProfile="full"
	width="100%" height="100%"
	xmlns="http://www.w3.org/2000/svg">
	<polygon points="400,0 0,692.82 800,692.82" style="fill:red" />

	<rect x="23.094" y="652.82" width="80" height="40" style="fill:green;stroke-width:1" />

	<rect x="103.094" y="652.82" width="80" height="40" style="fill:green;stroke-width:1" />

	<rect x="183.094" y="652.82" width="80" height="40" style="fill:green;stroke-width:1" />

	<rect x="263.094" y="652.82" width="80" height="40" style="fill:green;stroke-width:1" />

	<rect x="343.094" y="652.82" width="80" height="40" style="fill:green;stroke-width:1" />

	<rect x="423.094" y="652.82" width="80" height="40" style="fill:green;stroke-width:1" />

	<rect x="503.094" y="652.82" width="80" height="40" style="fill:green;stroke-width:1" />

	<rect x="583.094" y="652.82" width="80" height="40" style="fill:green;stroke-width:1" />

	<rect x="663.094" y="652.82" width="80" height="40" style="fill:green;stroke-width:1" />

	<rect x="46.188" y="612.82" width="80" height="40" style="fill:green;stroke-width:1" />

	<rect x="126.188" y="612.82" width="80" height="40" style="fill:green;stroke-width:1" />

	<rect x="206.188" y="612.82" width="80" height="40" style="fill:green;stroke-width:1" />

	<rect x="286.188" y="612.82" width="80" height="40" style="fill:green;stroke-width:1" />

	<rect x="366.188" y="612.82" width="80" height="40" style="fill:green;stroke-width:1" />

	<rect x="446.188" y="612.82" width="80" height="40" style="fill:green;stroke-width:1" />

	<rect x="526.188" y="612.82" width="80" height="40" style="fill:green;stroke-width:1" />

	<rect x="606.188" y="612.82" width="80" height="40" style="fill:green;stroke-width:1" />

	<rect x="69.282" y="572.82" width="80" height="40" style="fill:green;stroke-width:1" />

	<rect x="149.282" y="572.82" width="80" height="40" style="fill:green;stroke-width:1" />

	<rect x="229.282" y="572.82" width="80" height="40" style="fill:green;stroke-width:1" />

	<rect x="309.282" y="572.82" width="80" height="40" style="fill:green;stroke-width:1" />

	<rect x="389.282" y="572.82" width="80" height="40" style="fill:green;stroke-width:1" />

	<rect x="469.282" y="572.82" width="80" height="40" style="fill:green;stroke-width:1" />

	<rect x="549.282" y="572.82" width="80" height="40" style="fill:green;stroke-width:1" />

	<rect x="629.282" y="572.82" width="80" height="40" style="fill:green;stroke-width:1" />

	<rect x="92.376" y="532.82" width="80" height="40" style="fill:green;stroke-width:1" />

	<rect x="172.376" y="532.82" width="80" height="40" style="fill:green;stroke-width:1" />

	<rect x="252.376" y="532.82" width="80" height="40" style="fill:green;stroke-width:1" />

	<rect x="332.376" y="532.82" width="80" height="40" style="fill:green;stroke-width:1" />

	<rect x="412.376" y="532.82" width="80" height="40" style="fill:green;stroke-width:1" />

	<rect x="492.376" y="532.82" width="80" height="40" style="fill:green;stroke-width:1" />

	<rect x="572.376" y="532.82" width="80" height="40" style="fill:green;stroke-width:1" />

	<rect x="115.47" y="492.82" width="80" height="40" style="fill:green;stroke-width:1" />

	<rect x="195.47" y="492.82" width="80" height="40" style="fill:green;stroke-width:1" />

	<rect x="275.47" y="492.82" width="80" height="40" style="fill:green;stroke-width:1" />

	<rect x="355.47" y="492.82" width="80" height="40" style="fill:green;stroke-width:1" />

	<rect x="435.47" y="492.82" width="80" height="40" style="fill:green;stroke-width:1" />

	<rect x="515.47" y="492.82" width="80" height="40" style="fill:green;stroke-width:1" />

	<rect x="595.47" y="492.82" width="80" height="40" style="fill:green;stroke-width:1" />

	<rect x="138.564" y="452.82" width="80" height="40" style="fill:green;stroke-width:1" />

	<rect x="218.564" y="452.82" width="80" height="40" style="fill:green;stroke-width:1" />

	<rect x="298.564" y="452.82" width="80" height="40" style="fill:green;stroke-width:1" />

	<rect x="378.564" y="452.82" width="80" height="40" style="fill:green;stroke-width:1" />

	<rect x="458.564" y="452.82" width="80" height="40" style="fill:green;stroke-width:1" />

	<rect x="538.564" y="452.82" width="80" height="40" style="fill:green;stroke-width:1" />

	<rect x="161.658" y="412.82" width="80" height="40" style="fill:green;stroke-width:1" />

	<rect x="241.658" y="412.82" width="80" height="40" style="fill:green;stroke-width:1" />

	<rect x="321.658" y="412.82" width="80" height="40" style="fill:green;stroke-width:1" />

	<rect x="401.658" y="412.82" width="80" height="40" style="fill:green;stroke-width:1" />

	<rect x="481.658" y="412.82" width="80" height="40" style="fill:green;stroke-width:1" />

	<rect x="184.752" y="372.82" width="80" height="40" style="fill:green;stroke-width:1" />

	<rect x="264.752" y="372.82" width="80" height="40" style="fill:green;stroke-width:1" />

	<rect x="344.752" y="372.82" width="80" height="40" style="fill:green;stroke-width:1" />

	<rect x="424.752" y="372.82" width="80" height="40" style="fill:green;stroke-width:1" />

	<rect x="504.752" y="372.82" width="80" height="40" style="fill:green;stroke-width:1" />

	<rect x="207.846" y="332.82" width="80" height="40" style="fill:green;stroke-width:1" />

	<rect x="287.846" y="332.82" width="80" height="40" style="fill:green;stroke-width:1" />

	<rect x="367.846" y="332.82" width="80" height="40" style="fill:green;stroke-width:1" />

	<rect x="447.846" y="332.82" width="80" height="40" style="fill:green;stroke-width:1" />

	<rect x="230.94" y="292.82" width="80" height="40" style="fill:green;stroke-width:1" />

	<rect x="310.94" y="292.82" width="80" height="40" style="fill:green;stroke-width:1" />

	<rect x="390.94" y="292.82" width="80" height="40" style="fill:green;stroke-width:1" />

	<rect x="470.94" y="292.82" width="80" height="40" style="fill:green;stroke-width:1" />

	<rect x="254.034" y="252.82" width="80" height="40" style="fill:green;stroke-width:1" />

	<rect x="334.034" y="252.82" width="80" height="40" style="fill:green;stroke-width:1" />

	<rect x="414.034" y="252.82" width="80" height="40" style="fill:green;stroke-width:1" />

	<rect x="277.128" y="212.82" width="80" height="40" style="fill:green;stroke-width:1" />

	<rect x="357.128" y="212.82" width="80" height="40" style="fill:green;stroke-width:1" />

	<rect x="437.128" y="212.82" width="80" height="40" style="fill:green;stroke-width:1" />

	<rect x="300.222" y="172.82" width="80" height="40" style="fill:green;stroke-width:1" />

	<rect x="380.222" y="172.82" width="80" height="40" style="fill:green;stroke-width:1" />

	<rect x="323.316" y="132.82" width="80" height="40" style="fill:green;stroke-width:1" />

	<rect x="346.41" y="92.8203" width="80" height="40" style="fill:green;stroke-width:1" />

</svg>