<svg version="1.1"
	baseProfile="full"
	width="100%" height="100%"
	xmlns="http://www.w3.org/2000/svg">
	<rect x="0" y="0" width="350" height="250" style="fill:green;stroke-width:1" />

	<circle cx="100" cy="100" r="50" fill="yellow" />
	<polygon points="220,0 170,86.6025 270,86.6025" style="fill:red" />

<polygon points = "0,0 80,0 80,40 0,40 " style="fill:pink;"/>
<polygon points = "20,0 21,0 22,0 23,0 24,0 26,0 27,1 28,1 29,2 30,3 31,3 32,4 33,5 34,6 35,7 36,8 36,9 37,10 38,11 38,12 39,13 39,15 39,16 39,17 39,18 40,19 39,21 39,22 39,23 39,24 39,26 38,27 38,28 37,29 36,30 36,31 35,32 34,33 33,34 32,35 31,36 30,36 29,37 28,38 27,38 26,39 24,39 23,39 22,39 21,39 20,40 18,39 17,39 16,39 15,39 13,39 12,38 11,38 10,37 9,36 8,36 7,35 6,34 5,33 4,32 3,31 3,30 2,29 1,28 1,27 0,26 0,24 0,23 0,22 0,21 0,20 0,18 0,17 0,16 0,15 0,13 1,12 1,11 2,10 3,9 3,8 4,7 5,6 6,5 7,4 8,3 9,3 10,2 11,1 12,1 13,0 15,0 16,0 17,0 18,0 " style="fill:red;"/>
</svg>