<svg version="1.1"
	baseProfile="full"
	width="100%" height="100%"
	xmlns="http://www.w3.org/2000/svg">
<polygon points = "0,0 350,0 350,250 0,250 " style="fill:green;"/>
<polygon points = "100,50 103,50 106,50 109,50 112,51 115,52 118,53 121,54 124,56 126,57 129,59 131,61 134,63 136,65 138,68 140,70 142,73 143,75 145,78 146,81 147,84 148,87 149,90 149,93 149,96 150,99 149,103 149,106 149,109 148,112 147,115 146,118 145,121 143,124 142,126 140,129 138,131 136,134 134,136 131,138 129,140 126,142 124,143 121,145 118,146 115,147 112,148 109,149 106,149 103,149 100,150 96,149 93,149 90,149 87,148 84,147 81,146 78,145 75,143 73,142 70,140 68,138 65,136 63,134 61,131 59,129 57,126 56,124 54,121 53,118 52,115 51,112 50,109 50,106 50,103 50,100 50,96 50,93 50,90 51,87 52,84 53,81 54,78 56,75 57,73 59,70 61,68 63,65 65,63 68,61 70,59 73,57 75,56 78,54 81,53 84,52 87,51 90,50 93,50 96,50 " style="fill:pink;"/>
<polygon points = "220,0 170,86 270,86 " style="fill:red;"/>
<polygon points = "0,0 80,0 80,40 0,40 " style="fill:pink;"/>
<polygon points = "20,0 21,0 22,0 23,0 24,0 26,0 27,1 28,1 29,2 30,3 31,3 32,4 33,5 34,6 35,7 36,8 36,9 37,10 38,11 38,12 39,13 39,15 39,16 39,17 39,18 40,19 39,21 39,22 39,23 39,24 39,26 38,27 38,28 37,29 36,30 36,31 35,32 34,33 33,34 32,35 31,36 30,36 29,37 28,38 27,38 26,39 24,39 23,39 22,39 21,39 20,40 18,39 17,39 16,39 15,39 13,39 12,38 11,38 10,37 9,36 8,36 7,35 6,34 5,33 4,32 3,31 3,30 2,29 1,28 1,27 0,26 0,24 0,23 0,22 0,21 0,20 0,18 0,17 0,16 0,15 0,13 1,12 1,11 2,10 3,9 3,8 4,7 5,6 6,5 7,4 8,3 9,3 10,2 11,1 12,1 13,0 15,0 16,0 17,0 18,0 " style="fill:red;"/>
</svg>